<?xml version="1.0" encoding="UTF-8" standalone="no"?>
<!-- Generator: Adobe Illustrator 27.1.0, SVG Export Plug-In . SVG Version: 6.00 Build 0)  -->

<svg
   version="1.1"
   id="svg8"
   x="0px"
   y="0px"
   viewBox="0 0 499.4 500"
   style="enable-background:new 0 0 499.4 500;"
   xml:space="preserve"
   sodipodi:docname="formatter.svg"
   inkscape:version="1.3.2 (091e20e, 2023-11-25, custom)"
   xmlns:inkscape="http://www.inkscape.org/namespaces/inkscape"
   xmlns:sodipodi="http://sodipodi.sourceforge.net/DTD/sodipodi-0.dtd"
   xmlns="http://www.w3.org/2000/svg"
   xmlns:svg="http://www.w3.org/2000/svg"><defs
   id="defs9" /><sodipodi:namedview
   id="namedview9"
   pagecolor="#ffffff"
   bordercolor="#000000"
   borderopacity="0.25"
   inkscape:showpageshadow="2"
   inkscape:pageopacity="0.0"
   inkscape:pagecheckerboard="0"
   inkscape:deskcolor="#d1d1d1"
   inkscape:zoom="1.0988439"
   inkscape:cx="226.14676"
   inkscape:cy="244.34771"
   inkscape:window-width="1920"
   inkscape:window-height="991"
   inkscape:window-x="-9"
   inkscape:window-y="-9"
   inkscape:window-maximized="1"
   inkscape:current-layer="svg8" />
<style
   type="text/css"
   id="style1">
	.st0{fill:#222222;}
	.st1{fill:#FEBD17;}
	.st2{fill-rule:evenodd;clip-rule:evenodd;fill:#353849;}
	.st3{display:none;}
	.st4{display:inline;fill:#F75B38;}
	.st5{display:inline;fill:#FFFFFF;}
	.st6{fill:#16E8D5;}
	.st7{fill:#FFFFFF;}
</style>
<path
   style="fill:#ffffff;fill-opacity:1;fill-rule:nonzero;stroke:none;stroke-width:0.999999;stroke-linecap:butt;stroke-linejoin:miter;stroke-miterlimit:1.41421;stroke-dasharray:none;stroke-opacity:1;paint-order:markers stroke fill"
   d="M 0,0 V 499.99998 H 500.00002 V 0 Z"
   id="rect815"
   inkscape:connector-curvature="0" /><g
   id="layer1"
   transform="matrix(0.76091311,0,0,0.76,60,60)">
	<path
   id="rect841-5"
   class="st0"
   d="m 113.8,60 h 271.7 c 29.9,0 54.1,24.2 54.1,54.1 v 271.7 c 0,29.9 -24.2,54.1 -54.1,54.1 H 113.8 c -29.9,0 -54.1,-24.2 -54.1,-54.1 V 114.1 C 59.7,84.2 83.9,60 113.8,60 Z" />
	<ellipse
   class="st1"
   cx="249.7"
   cy="250"
   rx="249.7"
   ry="250"
   id="ellipse1" />
</g>

<path
   class="st2"
   d="m 250.30437,389.764 c -65.97117,0 -98.91871,0 -119.38727,-20.444 C 110.37245,348.8 110.37245,315.892 110.37245,250 c 0,-65.892 0,-98.8 20.46856,-119.244 20.46856,-20.444 53.49219,-20.444 119.38727,-20.444 65.97116,0 98.9187,0 119.38726,20.444 20.46856,20.444 20.46856,53.428 20.46856,119.244 0,65.892 0,98.8 -20.46856,119.244 -20.39247,20.52 -53.34001,20.52 -119.31117,20.52 z"
   id="path1"
   style="stroke-width:0.760456"
   sodipodi:nodetypes="ssssssscs" />
<g
   class="st3"
   id="g7">
	<path
   class="st4"
   d="M164,273l18.9,13.3c5.8,4.1,13.1,5.6,20,4.2c7-1.4,13.1-5.6,16.9-11.6l17.2-27.3l-58.5-41.2l-19.9,25.4   c-4.4,5.6-6.3,12.8-5.3,19.8C154.3,262.6,158.2,268.9,164,273z"
   id="path2" />
	<path
   class="st4"
   d="M345.5,79.1c7.1-11.3,4.1-26.2-6.8-33.9l-0.1-0.1c-10.9-7.7-25.9-5.5-34.2,5L185.5,201.4l57.5,40.5L345.5,79.1   z"
   id="path3" />
	<path
   class="st5"
   d="M435.4,363.5c-3,0-5.4,2.4-5.4,5.4s2.4,5.4,5.4,5.4s5.4-2.4,5.4-5.4S438.4,363.5,435.4,363.5z"
   id="path4" />
	<path
   class="st5"
   d="M400.1,353.6c2.9,0,5.3-2.4,5.3-5.3s-2.4-5.3-5.3-5.3s-5.3,2.4-5.3,5.3C394.8,351.2,397.1,353.6,400.1,353.6z"
   id="path5" />
	<path
   class="st5"
   d="M181.4,359.8c11-15.5,12.7-35.9,4.5-53.1l-0.3-0.7l-41-28.9l-0.8-0.1c-18.9-1.9-37.5,6.5-48.5,22.1   c-10.4,14.7-14.2,30.8-17.8,46.4c-2.5,10.6-5.1,21.6-9.7,32.1c-3.9,8.7-6.4,11.8-6.5,11.9l-2.7,3l3.6,1.8   c16.9,8.1,39.7,9.3,62.5,3.1C148.8,390.9,168.9,377.5,181.4,359.8z M160.2,364c-0.6,0.4-1.3,0.9-2,1.4c-7.5,5.9-17.3,3.4-11.3-8.6   c5.9-12-4.5-15.8-13.1-8c-10.7,9.9-15.7,2-13.7-3.5s9.1-12.9,3.1-17.7c-3.6-2.9-8.2,1.3-15.6,7.1c-4.2,3.3-13.9,2.2-10-12.4   c2.1-5.4,4.8-10.7,8.3-15.7c7.6-10.9,20.6-17.2,33.9-16.7l35.1,24.7c5,12.4,3.3,26.7-4.3,37.6C167.7,356.4,164.2,360.3,160.2,364z"
   id="path6" />
	<path
   class="st5"
   d="M410.8,360.6h-98.7c-0.2-0.4-0.3-0.7-0.3-1.2c0-0.7,0.3-1.3,0.7-1.8h60.9c4.4,0,7.9-3.5,7.9-7.9   s-3.5-7.9-7.9-7.9H206.2c0.2,11.5-3.1,23-9.9,32.7c-8.4,11.9-20.3,21.6-34.5,28.4h226.8c4.9,0,8.9-4,8.9-8.9s-4-8.9-8.9-8.9h-41.4   c-2.5,0-4.5-2-4.5-4.5c0-0.9,0.4-1.7,0.8-2.4h67.1c4.9,0,8.9-4,8.9-8.9C419.6,364.6,415.7,360.6,410.8,360.6z"
   id="path7" />
</g>
<g
   id="g9"
   transform="matrix(0.76091311,0,0,0.76,60,60)">
	<path
   class="st6"
   d="m 319.5,167.6 -7.4,17.6 58.5,24.9 c 6.4,2.8 11.2,7.8 13.5,13.9 2.6,6 2.6,13 -0.1,19.4 -5.1,12.1 -18.8,18.1 -31.1,14.3 -0.8,-0.2 -1.5,-0.4 -2.2,-0.8 L 175.3,182.2 c -0.8,-0.3 -1.5,-0.6 -2.2,-1.1 -5.4,-2.9 -9.3,-7.4 -11.4,-12.8 -2.8,-6.7 -2.6,-14.5 1.2,-21.5 6.3,-11.9 21.2,-16.1 33.6,-10.8 l 57.2,24.3 7.5,-17.5 c 6.9,-16.2 25.5,-23.7 41.7,-16.8 16,6.8 23.5,25.5 16.6,41.6 z"
   id="path8" />
	<path
   class="st7"
   d="m 142.6,333.9 46.1,19.6 c 3.3,1.4 6.9,-0.1 8.3,-3.3 l 7.4,-17.6 c 2.1,-4.8 7.7,-7.1 12.5,-5.1 1,0.4 1.9,1.1 2.7,1.9 2.9,2.6 4,6.9 2.4,10.6 l -7.4,17.6 c -1.4,3.3 0.1,6.9 3.3,8.3 l 17.6,7.5 c 3.3,1.4 6.9,-0.1 8.3,-3.3 l 22.4,-52.6 c 2.1,-4.8 7.7,-7.1 12.5,-5.1 4.8,2.1 7.1,7.7 5.1,12.5 l -11.2,26.3 -11.2,26.3 c -1.3,3.1 -0.1,6.6 3,8.2 l 0.3,0.1 c 20.6,8.2 43.8,-2.8 50.4,-24.1 l 29.2,-80.8 c 2.3,-6.3 -0.8,-13.5 -7,-16.1 l -159,-67.6 c -6.2,-2.6 -13.5,0.1 -16.4,6.2 l -37.9,77 c -10.8,20 -2.1,44.8 18.6,53.5 z"
   id="path9" />
</g>
</svg>
