<?xml version="1.0" encoding="UTF-8" standalone="no"?>
<!-- Created with Inkscape (http://www.inkscape.org/) -->

<svg
   width="500"
   height="500"
   viewBox="0 0 132.29166 132.29167"
   version="1.1"
   id="svg8"
   inkscape:version="1.3.2 (091e20e, 2023-11-25, custom)"
   sodipodi:docname="icon-pretty-link.svg"
   inkscape:export-filename="icon-pretty-link.png"
   inkscape:export-xdpi="96"
   inkscape:export-ydpi="96"
   xmlns:inkscape="http://www.inkscape.org/namespaces/inkscape"
   xmlns:sodipodi="http://sodipodi.sourceforge.net/DTD/sodipodi-0.dtd"
   xmlns="http://www.w3.org/2000/svg"
   xmlns:svg="http://www.w3.org/2000/svg"
   xmlns:rdf="http://www.w3.org/1999/02/22-rdf-syntax-ns#"
   xmlns:cc="http://creativecommons.org/ns#"
   xmlns:dc="http://purl.org/dc/elements/1.1/">
  <defs
     id="defs2">
    <linearGradient
       id="SVGID_1_"
       gradientUnits="userSpaceOnUse"
       x1="33.632401"
       y1="17.0546"
       x2="70.270599"
       y2="17.0546"
       gradientTransform="matrix(0.9992,-0.03984763,0.03984763,0.9992,3.8206,4.7075)">
		<stop
   offset="0"
   style="stop-color:#FF8C00"
   id="stop3" />

		<stop
   offset="0.7"
   style="stop-color:#FFD200"
   id="stop4" />

	</linearGradient>
  </defs>
  <sodipodi:namedview
     id="base"
     pagecolor="#ffffff"
     bordercolor="#a52828"
     borderopacity="1"
     inkscape:pageopacity="0.0"
     inkscape:pageshadow="2"
     inkscape:zoom="1.4"
     inkscape:cx="281.78571"
     inkscape:cy="317.5"
     inkscape:document-units="px"
     inkscape:current-layer="layer1"
     showgrid="false"
     units="px"
     borderlayer="false"
     inkscape:pagecheckerboard="false"
     inkscape:window-width="1920"
     inkscape:window-height="1001"
     inkscape:window-x="-9"
     inkscape:window-y="-9"
     inkscape:window-maximized="1"
     showguides="true"
     inkscape:guide-bbox="true"
     inkscape:measure-start="249.821,63.0357"
     inkscape:measure-end="249.821,0"
     inkscape:showpageshadow="2"
     inkscape:deskcolor="#d1d1d1">
    <sodipodi:guide
       position="9.5882942,66.182616"
       orientation="0,1"
       id="guide859"
       inkscape:locked="false" />
    <sodipodi:guide
       position="66.145833,14.717448"
       orientation="1,0"
       id="guide863"
       inkscape:locked="false" />
    <sodipodi:guide
       position="91.281245,132.29167"
       orientation="0,1"
       id="guide865"
       inkscape:locked="false" />
    <sodipodi:guide
       position="4.943e-007,86.758659"
       orientation="1,0"
       id="guide867"
       inkscape:locked="false" />
  </sodipodi:namedview>
  <metadata
     id="metadata5">
    <rdf:RDF>
      <cc:Work
         rdf:about="">
        <dc:format>image/svg+xml</dc:format>
        <dc:type
           rdf:resource="http://purl.org/dc/dcmitype/StillImage" />
      </cc:Work>
    </rdf:RDF>
  </metadata>
  <g
     inkscape:label="Capa 1"
     inkscape:groupmode="layer"
     id="layer1"
     transform="translate(0,-164.70832)">
    <path
       style="opacity:1;fill:#ffffff;fill-opacity:1;fill-rule:nonzero;stroke:none;stroke-width:0.26458332;stroke-linecap:butt;stroke-linejoin:miter;stroke-miterlimit:1.41420996;stroke-dasharray:none;stroke-opacity:1;paint-order:markers stroke fill"
       d="M 0,164.70832 V 296.99998 H 132.29167 V 164.70832 Z"
       id="rect815"
       inkscape:connector-curvature="0" />
    <g
       id="g4"
       transform="matrix(1.3647658,0,0,1.3647658,15.272805,204.52455)"
       style="display:inline">
	<path
   class="st0"
   d="M 36.5,14.3 C 35.7,13.5 35.3,12.4 35.3,11.3 28.9,11 22.5,11.2 15.7,12 c -0.5,0.1 -0.9,0.4 -1,0.7 -0.1,0.4 0.3,0.6 0.4,0.6 2.9,1.3 4.4,2 7.1,3.6 0.2,0.1 0.5,0.2 0.8,0.2 1.4,-0.1 2.7,-0.2 4,-0.2 4.2,-0.1 8.4,0 12.4,0.5 z"
   id="path1"
   style="fill:#4fd6f6" />

	<path
   class="st1"
   d="M 43.2,21.3 42,20.1 c -4.5,-0.7 -9.1,-1 -13.7,-0.9 0,0 0,0 0,0 -0.4,0 -0.8,0.2 -0.9,0.5 -0.1,0.3 0.1,0.6 0.3,0.7 2.4,1.7 3.6,2.6 5.9,4.5 0.2,0.1 0.3,0.2 0.5,0.2 2.7,0.2 4.9,0.3 6.9,0.7 z"
   id="path2-3"
   style="fill:#9ae8fa" />

	<path
   class="st2"
   d="m 39.5,7 c 0.2,0 0.5,0 0.7,0 l 9.8,1.2 1.5,-3 C 34.3,1.8 18.2,2.4 1.1,7 0.5,7.2 0,7.6 0,8 c 0,0.3 0.4,0.4 0.5,0.5 3.3,0.8 5,1.3 8.1,2.4 0.3,0.1 0.6,0.1 1,0 C 15.5,9.8 21,9.2 26.6,9 29.7,8.9 32.8,9 35.9,9.2 36.7,7.9 38,7.1 39.5,7 Z"
   id="path3"
   style="fill:#03c5f2" />

	
		<linearGradient
   id="linearGradient2"
   gradientUnits="userSpaceOnUse"
   x1="33.632401"
   y1="17.0546"
   x2="70.270599"
   y2="17.0546"
   gradientTransform="matrix(0.9992,-0.03984763,0.03984763,0.9992,3.8206,4.7075)">
		<stop
   offset="0"
   style="stop-color:#FF8C00"
   id="stop1" />

		<stop
   offset="0.7"
   style="stop-color:#FFD200"
   id="stop2" />

	</linearGradient>

	<path
   class="st3"
   d="M 74.5,15 C 74.3,14.2 73.7,13.6 72.9,13.5 L 61.5,12.1 59.7,1.9 C 59.6,1.1 58.9,0.5 58.1,0.4 c -0.8,-0.1 -1.6,0.3 -2,1 L 51.3,10.9 39.9,9.5 c -0.8,-0.1 -1.6,0.3 -1.9,1 -0.4,0.7 -0.2,1.6 0.3,2.1 l 7.9,8.2 -5.8,11.8 v 0 0 c 0,0 0,0.1 -0.1,0.1 0,0 0,0.1 -0.1,0.1 0,0 0,0.1 0,0.1 0,0 0,0.1 0,0.1 0,0 0,0.1 0,0.1 0,0 0,0.1 0,0.1 0,0 0,0.1 0,0.1 0,0 0,0.1 0,0.1 0,0 0,0.1 0,0.1 0,0.1 0,0.1 0,0.2 0,0 0,0.1 0.1,0.1 0,0.1 0,0.1 0.1,0.2 0,0 0,0.1 0.1,0.1 0,0 0.1,0.1 0.1,0.1 0,0 0.1,0.1 0.1,0.1 0,0 0.1,0.1 0.1,0.1 0,0 0,0 0,0 0,0 0,0 0,0 0.1,0.1 0.2,0.1 0.2,0.2 0,0 0.1,0 0.1,0 0.1,0 0.1,0.1 0.2,0.1 0,0 0.1,0 0.1,0 0.1,0 0.1,0 0.2,0.1 0,0 0.1,0 0.1,0 0.1,0 0.1,0 0.2,0 0,0 0,0 0,0 0.1,0 0.1,0 0.2,0 0,0 0.1,0 0.1,0 0.1,0 0.1,0 0.2,0 0,0 0.1,0 0.1,0 0.1,0 0.2,0 0.2,-0.1 0,0 0,0 0.1,0 0.1,0 0.2,-0.1 0.3,-0.1 l 10.8,-6.4 8.8,9.4 c 0.3,0.3 0.7,0.5 1.1,0.6 0.4,0 0.7,0 1.1,-0.2 0.7,-0.4 1.2,-1.2 1,-2 l -2.4,-13.4 10.2,-6 c 0.6,0 1,-0.8 0.8,-1.6 z"
   id="path4-3"
   style="fill:url(#SVGID_1_)" />

</g>
  </g>
</svg>
