<?xml version="1.0" encoding="UTF-8" standalone="no"?>
<!-- Generator: Adobe Illustrator 27.1.0, SVG Export Plug-In . SVG Version: 6.00 Build 0)  -->

<svg
   version="1.1"
   id="svg8"
   x="0px"
   y="0px"
   viewBox="0 0 499.4 500"
   style="enable-background:new 0 0 499.4 500;"
   xml:space="preserve"
   sodipodi:docname="generator.svg"
   inkscape:version="1.3.2 (091e20e, 2023-11-25, custom)"
   xmlns:inkscape="http://www.inkscape.org/namespaces/inkscape"
   xmlns:sodipodi="http://sodipodi.sourceforge.net/DTD/sodipodi-0.dtd"
   xmlns="http://www.w3.org/2000/svg"
   xmlns:svg="http://www.w3.org/2000/svg"><defs
   id="defs11" /><sodipodi:namedview
   id="namedview11"
   pagecolor="#ffffff"
   bordercolor="#000000"
   borderopacity="0.25"
   inkscape:showpageshadow="2"
   inkscape:pageopacity="0.0"
   inkscape:pagecheckerboard="0"
   inkscape:deskcolor="#d1d1d1"
   inkscape:zoom="1.0988439"
   inkscape:cx="226.14676"
   inkscape:cy="237.97738"
   inkscape:window-width="1920"
   inkscape:window-height="991"
   inkscape:window-x="-9"
   inkscape:window-y="-9"
   inkscape:window-maximized="1"
   inkscape:current-layer="svg8" />
<style
   type="text/css"
   id="style1">
	.st0{fill:#222222;}
	.st1{fill:#FEBD17;}
	.st2{fill-rule:evenodd;clip-rule:evenodd;fill:#353849;}
	.st3{display:none;}
	.st4{display:inline;fill:#16E8D5;}
	.st5{fill:#FFFFFF;stroke:#353849;stroke-width:12;stroke-miterlimit:10;}
	.st6{fill:#16E8D5;}
	.st7{display:none;fill:#FFFFFF;}
	.st8{fill:#FFFFFF;}
	.st9{display:inline;}
	.st10{fill:#F75B38;}
</style>
<path
   style="fill:#ffffff;fill-opacity:1;fill-rule:nonzero;stroke:none;stroke-width:0.999999;stroke-linecap:butt;stroke-linejoin:miter;stroke-miterlimit:1.41421;stroke-dasharray:none;stroke-opacity:1;paint-order:markers stroke fill"
   d="M 0,0 V 499.99998 H 500.00002 V 0 Z"
   id="rect815"
   inkscape:connector-curvature="0" /><g
   id="layer1"
   transform="matrix(0.76091311,0,0,0.76,60,60)">
	<path
   id="rect841-5"
   class="st0"
   d="m 113.8,60 h 271.7 c 29.9,0 54.1,24.2 54.1,54.1 v 271.7 c 0,29.9 -24.2,54.1 -54.1,54.1 H 113.8 c -29.9,0 -54.1,-24.2 -54.1,-54.1 V 114.1 C 59.7,84.2 83.9,60 113.8,60 Z" />
	<ellipse
   class="st1"
   cx="249.7"
   cy="250"
   rx="249.7"
   ry="250"
   id="ellipse1" />
</g>

<path
   class="st2"
   d="m 250.30437,389.764 c -65.97117,0 -98.91871,0 -119.38727,-20.444 C 110.37245,348.8 110.37245,315.892 110.37245,250 c 0,-65.892 0,-98.8 20.46856,-119.244 20.46856,-20.444 53.49219,-20.52 119.38727,-20.52 65.97116,0 98.9187,0 119.38726,20.444 20.46856,20.444 20.46856,53.428 20.46856,119.244 0,65.892 0,98.8 -20.46856,119.244 -20.39247,20.596 -53.34001,20.596 -119.31117,20.596 z"
   id="path1"
   style="stroke-width:0.760456"
   sodipodi:nodetypes="ssssssscs" />
<g
   id="g7"
   transform="matrix(0.76091311,0,0,0.76,60,60)">
	<g
   class="st3"
   id="g3">
		<g
   id="g2">
			<path
   class="st4"
   d="m 351.3,141 c -53.2,-52.3 -139.8,-52.3 -192.9,0 -27.5,27.1 -41.5,63.3 -39.9,100.2 0,0.9 -0.7,1.6 -1.5,1.6 H 96.5 c -8.4,0 -10.4,4.7 -4.5,10.5 0,0 0.1,0.1 0.1,0.1 1.2,1.5 33.5,41.4 35.1,43.5 0,0.1 0.1,0.1 0.2,0.2 5.9,5.7 15.4,5.7 21.3,0 0,0 0.1,-0.1 0.1,-0.1 L 187,253.5 c 5.9,-5.8 3.9,-10.6 -4.4,-10.6 h -23.3 c -0.8,0 -1.5,-0.6 -1.6,-1.5 -1.6,-26.8 8.3,-53.4 28.3,-73.2 37.9,-37.3 99.6,-37.3 137.6,0 5.1,5.1 9.6,10.5 13.4,16.4 0.4,0.6 1.2,0.9 1.9,0.6 1.1,-0.5 2.4,-0.6 3.3,0.2 4.3,3.4 7.2,7.5 9.3,12.1 0.1,0.2 0.2,0.3 0.3,0.4 8.9,9.4 17.5,19.5 20.1,32.6 2,9.9 1.1,20.1 -0.1,30 -1.2,10.7 -3.1,21.2 -4.5,31.8 -0.3,2.2 -2,3.4 -3.7,3.5 -0.6,0 -1.2,0.3 -1.4,0.9 v 0 c -0.4,0.9 0.2,2 1.1,2.2 0.2,0 0.4,0.1 0.6,0.1 0.3,0.1 0.5,0.1 0.7,0.2 0.7,0.3 1.5,0 1.9,-0.5 4.9,-6.7 9.9,-13.2 14.2,-20.3 3.3,-5.3 6.3,-11 8.1,-17.1 0,-0.1 0,-0.1 0,-0.2 1.6,-8.2 2.4,-16.6 2.4,-25.1 0.1,-36 -14.1,-69.7 -39.9,-95 z"
   id="path2" />
		</g>
	</g>
	<path
   class="st5"
   d="m 236.3,199.9 c 1.7,0.5 3.5,-0.5 4.1,-2.2 9.2,-27.8 37.9,-45.2 67.4,-39.4 32,6.3 52.9,37.4 46.6,69.4 -5,25.7 -26.1,44.2 -50.8,47.3 -0.1,0.4 -0.1,0.9 -0.2,1.4 -0.5,2.5 -1.3,4.8 -2.4,7.1 -0.7,1.4 -0.4,3.2 0.8,4.2 4,3.4 7,8 8.5,13.1 0.5,1.7 2.2,2.8 3.9,2.4 1.8,-0.4 3.6,-0.8 5.4,-1.2 1.4,-0.4 2.9,0.2 3.7,1.4 l 9.3,13.8 c 1.4,2 3.5,3.4 5.9,4 2.4,0.4 4.9,0 7,-1.4 l 27.9,-18.7 c 4.2,-2.8 5.4,-8.6 2.6,-12.9 l -9.3,-13.8 c -0.8,-1.2 -0.8,-2.8 0.1,-3.9 2.4,-3.1 4.6,-6.4 6.6,-9.9 0.7,-1.3 2.2,-1.9 3.6,-1.6 l 16.2,3.2 c 5,1 9.9,-2.3 10.9,-7.3 l 6.5,-33 c 1,-5 -2.3,-9.9 -7.3,-10.8 L 387,207.9 c -1.4,-0.3 -2.5,-1.4 -2.7,-2.9 -0.5,-3.9 -1.3,-7.8 -2.4,-11.6 -0.4,-1.4 0.2,-2.9 1.4,-3.7 l 13.8,-9.3 c 4.2,-2.8 5.4,-8.6 2.6,-12.9 l -18.7,-28 c -1.4,-2 -3.5,-3.4 -5.9,-4 -2.4,-0.4 -4.9,0 -7,1.4 l -13.8,9.3 c -1.2,0.8 -2.8,0.7 -4,-0.2 -3.1,-2.4 -6.3,-4.6 -9.7,-6.5 -1.3,-0.7 -2,-2.2 -1.7,-3.6 l 3.2,-16.3 c 1,-5 -2.3,-9.9 -7.3,-10.8 l -33,-6.5 c -5,-1 -9.9,2.3 -10.9,7.3 l -3.2,16.3 c -0.3,1.4 -1.4,2.5 -2.9,2.7 -3.9,0.5 -7.8,1.3 -11.6,2.4 -1.4,0.4 -2.9,-0.2 -3.7,-1.4 l -9.3,-13.8 c -2.8,-4.2 -8.6,-5.4 -12.9,-2.6 l -27.9,18.7 c -4.2,2.8 -5.4,8.6 -2.6,12.9 l 9.3,13.8 c 0.8,1.2 0.7,2.8 -0.2,4 -2.4,3.1 -4.6,6.3 -6.5,9.7 -0.7,1.3 -2.2,2 -3.6,1.7 l -16.3,-3.2 c -5,-1 -9.9,2.3 -10.9,7.3 l -2.8,13.9 c -0.5,2.7 2.2,4.8 4.7,3.7 5,-2.2 10.7,-2.9 16.5,-1.7 4.7,0.7 21.4,3.7 29.3,5.9 z"
   id="path3" />
	<path
   class="st6"
   d="m 236.3,199.9 c 1.7,0.5 3.5,-0.5 4.1,-2.2 9.2,-27.8 37.9,-45.2 67.4,-39.4 32,6.3 52.9,37.4 46.6,69.4 -5,25.7 -26.1,44.2 -50.8,47.3 -0.1,0.4 -0.1,0.9 -0.2,1.4 -0.5,2.5 -1.3,4.8 -2.4,7.1 -0.7,1.4 -0.4,3.2 0.8,4.2 4,3.4 7,8 8.5,13.1 0.5,1.7 2.2,2.8 3.9,2.4 1.8,-0.4 3.6,-0.8 5.4,-1.2 1.4,-0.4 2.9,0.2 3.7,1.4 l 9.3,13.8 c 1.4,2 3.5,3.4 5.9,4 2.4,0.4 4.9,0 7,-1.4 l 27.9,-18.7 c 4.2,-2.8 5.4,-8.6 2.6,-12.9 l -9.3,-13.8 c -0.8,-1.2 -0.8,-2.8 0.1,-3.9 2.4,-3.1 4.6,-6.4 6.6,-9.9 0.7,-1.3 2.2,-1.9 3.6,-1.6 l 16.2,3.2 c 5,1 9.9,-2.3 10.9,-7.3 l 6.5,-33 c 1,-5 -2.3,-9.9 -7.3,-10.8 L 387,207.9 c -1.4,-0.3 -2.5,-1.4 -2.7,-2.9 -0.5,-3.9 -1.3,-7.8 -2.4,-11.6 -0.4,-1.4 0.2,-2.9 1.4,-3.7 l 13.8,-9.3 c 4.2,-2.8 5.4,-8.6 2.6,-12.9 l -18.7,-28 c -1.4,-2 -3.5,-3.4 -5.9,-4 -2.4,-0.4 -4.9,0 -7,1.4 l -13.8,9.3 c -1.2,0.8 -2.8,0.7 -4,-0.2 -3.1,-2.4 -6.3,-4.6 -9.7,-6.5 -1.3,-0.7 -2,-2.2 -1.7,-3.6 l 3.2,-16.3 c 1,-5 -2.3,-9.9 -7.3,-10.8 l -33,-6.5 c -5,-1 -9.9,2.3 -10.9,7.3 l -3.2,16.3 c -0.3,1.4 -1.4,2.5 -2.9,2.7 -3.9,0.5 -7.8,1.3 -11.6,2.4 -1.4,0.4 -2.9,-0.2 -3.7,-1.4 l -9.3,-13.8 c -2.8,-4.2 -8.6,-5.4 -12.9,-2.6 l -27.9,18.7 c -4.2,2.8 -5.4,8.6 -2.6,12.9 l 9.3,13.8 c 0.8,1.2 0.7,2.8 -0.2,4 -2.4,3.1 -4.6,6.3 -6.5,9.7 -0.7,1.3 -2.2,2 -3.6,1.7 l -16.3,-3.2 c -5,-1 -9.9,2.3 -10.9,7.3 l -2.8,13.9 c -0.5,2.7 2.2,4.8 4.7,3.7 5,-2.2 10.7,-2.9 16.5,-1.7 4.7,0.7 21.4,3.7 29.3,5.9 z"
   id="path4" />
	<path
   class="st7"
   d="m 299.3,255.1 c 0.9,1.3 1.6,2.7 2.3,4.2 18.3,-2.2 33.9,-15.7 37.6,-34.7 4.7,-23.5 -10.8,-46.5 -34.3,-51.1 -24.7,-4.8 -49.9,12.4 -51.7,40 1.1,2.2 2.1,4.6 2.6,7.1 22.5,-4 30.5,15.2 43.5,34.5 z"
   id="path5" />
	<path
   class="st7"
   d="m 234.4,313.1 c 3.9,-19.6 -8.9,-38.6 -28.5,-42.4 -19.6,-3.8 -38.6,8.9 -42.4,28.5 -3.9,19.6 8.9,38.6 28.5,42.4 19.4,3.9 38.5,-8.9 42.4,-28.5 z"
   id="path6" />
	<path
   class="st8"
   d="m 194.6,398.1 c 4.1,0.8 7.9,-1.9 8.7,-5.9 l 3,-15.1 c 4.5,-0.4 8.9,-1.4 13.1,-2.6 l 8.6,12.8 c 1.1,1.7 2.8,2.8 4.8,3.2 1.9,0.4 4,0 5.6,-1.1 l 22.5,-15.1 c 1.7,-1.1 2.8,-2.9 3.2,-4.8 0.4,-1.9 0,-3.9 -1.1,-5.6 l -8.6,-12.8 c 2.8,-3.4 5.3,-7.1 7.5,-11.2 l 15.1,3 c 4.1,0.8 7.9,-1.9 8.7,-5.9 l 5.2,-26.5 c 0.8,-4.1 -1.9,-7.9 -5.9,-8.7 l -15.1,-3 c -0.4,-4.5 -1.4,-8.9 -2.6,-13.1 L 280,277 c 1.7,-1.1 2.8,-2.9 3.2,-4.8 0.4,-1.9 0,-3.9 -1.1,-5.6 L 267,244.1 c -1.1,-1.7 -2.8,-2.8 -4.8,-3.2 -2,-0.4 -4,0 -5.6,1.1 l -12.8,8.6 c -3.4,-2.8 -7.1,-5.3 -11.2,-7.5 l 3,-15.1 c 0.8,-4.1 -1.9,-7.9 -5.9,-8.7 l -26.5,-5.2 c -4.1,-0.8 -7.9,1.9 -8.7,5.9 l -3,15.1 c -4.5,0.4 -8.9,1.4 -13.1,2.6 l -8.6,-12.8 c -2.3,-3.4 -7,-4.3 -10.4,-2 L 136.9,238 c -1.7,1.1 -2.8,2.8 -3.2,4.8 -0.4,1.9 0,4 1.1,5.6 l 8.6,12.8 c -2.8,3.4 -5.3,7.2 -7.5,11.2 l -15.1,-3 c -4.1,-0.8 -7.9,1.9 -8.7,5.9 l -5.2,26.5 c -0.8,4.1 1.9,7.9 5.9,8.7 l 15.1,3 c 0.4,4.5 1.4,8.9 2.6,13.1 l -12.8,8.6 c -1.7,1.1 -2.8,2.9 -3.2,4.8 -0.4,1.9 0,3.9 1.1,5.6 l 15.1,22.5 c 1.1,1.7 2.8,2.8 4.8,3.2 1.9,0.4 4,0 5.6,-1.1 l 12.8,-8.6 c 3.4,2.8 7.2,5.3 11.2,7.5 l -3,15.1 c -0.4,1.9 0,4 1.1,5.6 1.1,1.7 2.8,2.8 4.8,3.2 z M 153.3,297.2 c 5,-25.6 30.4,-42.3 56,-36.4 23.1,5.3 38.7,27.5 35.7,51 -3.4,26.9 -28.9,45.1 -55.1,39.9 -25.2,-4.9 -41.6,-29.4 -36.6,-54.5 z"
   id="path7" />
</g>
<g
   class="st3"
   id="g9">
	<g
   class="st9"
   id="g8">
		<path
   class="st10"
   d="M302.1,268.6c-31.6,0-57.3,25.7-57.3,57.3s25.7,57.3,57.3,57.3s57.3-25.7,57.3-57.3S333.6,268.6,302.1,268.6    z"
   id="path8" />
	</g>
</g>
<g
   class="st3"
   id="g11">
	<g
   class="st9"
   id="g10">
		<path
   class="st10"
   d="M432.3,291.1h-8.4c-2.7-9.1-6.4-18.1-10.6-26.1l6.3-6.4c4.9-4.9,4.9-12.9,0-17.8l-32.2-32.4    c-2.4-2.4-5.6-3.9-8.9-3.9c0,0,0,0-0.1,0c-3.4,0-6.6,1.6-9,4l-5.8,6.1c-7.9-4.3-16.5-7.9-25.3-10.5v-8c0-7-5.6-12.6-12.6-12.6h-47    c-7,0-12.6,5.6-12.6,12.6v8c-8.8,2.7-17.4,6.2-25.3,10.5l-6-6.1c-2.4-2.4-5.6-3.9-8.9-3.9l0,0c-3.3,0-6.6,1.5-8.9,3.9l-32.1,32.4    c-4.9,4.9-4.9,12.8-0.1,17.7l6.4,6.5c-4.2,7.9-7.9,16.9-10.6,26.1h-8.4c-7,0-12.6,5.6-12.6,12.6V350c0,7,5.6,12.6,12.6,12.6h8.5    c2.6,8.7,6.2,17.2,10.5,25l-6,5.9c-2.4,2.4-3.8,5.6-3.8,9s1.3,6.6,3.7,9l32.2,32.1c2.4,2.4,5.6,3.7,9,3.7s6.6-1.4,8.9-3.8l5.8-6    c7.8,4.2,16.4,7.8,25.2,10.4v9.8c0,7,5.6,12.6,12.6,12.6h47c7,0,12.6-5.6,12.6-12.6v-9.8c8.8-2.7,17.4-6.2,25.3-10.4l6,6.2    c2.4,2.4,5.6,4,8.9,4l0,0c3.3,0,6.6-1.5,8.9-3.9l32.1-32.4c2.4-2.4,3.7-5.7,3.7-9.1s-1.5-6.6-3.9-9l-5.9-5.6    c4.2-7.8,7.8-16.3,10.4-24.9h8.5c7,0,12.6-5.6,12.6-12.6V304C444.9,296.7,439.2,291.1,432.3,291.1z M302.1,404.1    c-43.2,0-78.3-35.1-78.3-78.3s35.1-78.3,78.3-78.3s78.3,35.1,78.3,78.3C380.3,369,345.2,404.1,302.1,404.1z"
   id="path9" />
	</g>
</g>
</svg>
