<?xml version="1.0" encoding="UTF-8" standalone="no"?>
<!-- Created with Inkscape (http://www.inkscape.org/) -->

<svg
   width="500"
   height="500"
   viewBox="0 0 132.29166 132.29167"
   version="1.1"
   id="svg8"
   inkscape:version="1.3.2 (091e20e, 2023-11-25, custom)"
   sodipodi:docname="icon-weforms.svg"
   inkscape:export-filename="icon-weforms.png"
   inkscape:export-xdpi="96"
   inkscape:export-ydpi="96"
   xmlns:inkscape="http://www.inkscape.org/namespaces/inkscape"
   xmlns:sodipodi="http://sodipodi.sourceforge.net/DTD/sodipodi-0.dtd"
   xmlns="http://www.w3.org/2000/svg"
   xmlns:svg="http://www.w3.org/2000/svg"
   xmlns:rdf="http://www.w3.org/1999/02/22-rdf-syntax-ns#"
   xmlns:cc="http://creativecommons.org/ns#"
   xmlns:dc="http://purl.org/dc/elements/1.1/">
  <defs
     id="defs2" />
  <sodipodi:namedview
     id="base"
     pagecolor="#ffffff"
     bordercolor="#a52828"
     borderopacity="1"
     inkscape:pageopacity="0.0"
     inkscape:pageshadow="2"
     inkscape:zoom="1.4"
     inkscape:cx="281.07143"
     inkscape:cy="203.21429"
     inkscape:document-units="px"
     inkscape:current-layer="layer1"
     showgrid="false"
     units="px"
     borderlayer="false"
     inkscape:pagecheckerboard="false"
     inkscape:window-width="1920"
     inkscape:window-height="1001"
     inkscape:window-x="-9"
     inkscape:window-y="-9"
     inkscape:window-maximized="1"
     showguides="true"
     inkscape:guide-bbox="true"
     inkscape:measure-start="249.821,63.0357"
     inkscape:measure-end="249.821,0"
     inkscape:showpageshadow="2"
     inkscape:deskcolor="#d1d1d1">
    <sodipodi:guide
       position="9.5882942,66.182616"
       orientation="0,1"
       id="guide859"
       inkscape:locked="false" />
    <sodipodi:guide
       position="66.145833,14.717448"
       orientation="1,0"
       id="guide863"
       inkscape:locked="false" />
    <sodipodi:guide
       position="91.281245,132.29167"
       orientation="0,1"
       id="guide865"
       inkscape:locked="false" />
    <sodipodi:guide
       position="4.943e-007,86.758659"
       orientation="1,0"
       id="guide867"
       inkscape:locked="false" />
  </sodipodi:namedview>
  <metadata
     id="metadata5">
    <rdf:RDF>
      <cc:Work
         rdf:about="">
        <dc:format>image/svg+xml</dc:format>
        <dc:type
           rdf:resource="http://purl.org/dc/dcmitype/StillImage" />
        <dc:title />
      </cc:Work>
    </rdf:RDF>
  </metadata>
  <g
     inkscape:label="Capa 1"
     inkscape:groupmode="layer"
     id="layer1"
     transform="translate(0,-164.70832)">
    <path
       style="opacity:1;fill:#ffffff;fill-opacity:1;fill-rule:nonzero;stroke:none;stroke-width:0.26458332;stroke-linecap:butt;stroke-linejoin:miter;stroke-miterlimit:1.41420996;stroke-dasharray:none;stroke-opacity:1;paint-order:markers stroke fill"
       d="M 0,164.70832 V 296.99998 H 132.29167 V 164.70832 Z"
       id="rect815"
       inkscape:connector-curvature="0" />
    <g
       fill="#a7aaad"
       id="g2"
       style="fill:#036600;fill-opacity:1"
       transform="matrix(0.33261905,0,0,0.33261905,16.252976,180.9613)">
      <rect
         style="fill:#ffffff;fill-opacity:1;stroke:none;stroke-width:1.062"
         id="rect1"
         width="84.477676"
         height="75.595238"
         x="23.056549"
         y="191.16666"
         transform="matrix(3.0064423,0,0,3.0064423,-48.863635,-544.04971)" />
      <path
         d="M 285.1,24.1 C 273.1,9.4 254.8,0 234.3,0 H 65.7 C 46.6,0 29.3,8.2 17.3,21.2 6.6,32.9 0,48.5 0,65.7 v 60.5 108.1 C 0,270.6 29.4,300 65.7,300 h 140 28.6 c 15.3,0 29.5,-5.3 40.7,-14.1 15.2,-12 25,-30.7 25,-51.6 V 65.7 C 300,49.9 294.4,35.4 285.1,24.1 Z M 212.7,187 104.6,233 c -11.1,4.8 -24,-0.3 -28.7,-11.4 -4.8,-11.1 0.3,-24 11.4,-28.7 l 108.1,-46.1 c 11.1,-4.8 24,0.3 28.7,11.4 4.8,11.1 -0.3,24 -11.4,28.8 z m 4.7,-79.9 -117.5,50.7 c -11.1,4.8 -24,-0.3 -28.7,-11.4 -4.8,-11.1 0.3,-24 11.4,-28.7 L 200.1,67 c 11.1,-4.8 24,0.3 28.7,11.4 v 0 c 4.8,11.1 -0.3,23.9 -11.4,28.7 z"
         id="path1"
         style="fill:#036600;fill-opacity:1" />
    </g>
  </g>
</svg>
