<?xml version="1.0" encoding="UTF-8" standalone="no"?>
<!-- Generator: Adobe Illustrator 27.1.0, SVG Export Plug-In . SVG Version: 6.00 Build 0)  -->

<svg
   version="1.1"
   id="svg8"
   x="0px"
   y="0px"
   viewBox="0 0 500 500"
   style="enable-background:new 0 0 500 500;"
   xml:space="preserve"
   sodipodi:docname="button.svg"
   inkscape:version="1.3.2 (091e20e, 2023-11-25, custom)"
   xmlns:inkscape="http://www.inkscape.org/namespaces/inkscape"
   xmlns:sodipodi="http://sodipodi.sourceforge.net/DTD/sodipodi-0.dtd"
   xmlns="http://www.w3.org/2000/svg"
   xmlns:svg="http://www.w3.org/2000/svg"><defs
   id="defs19" />
<style
   type="text/css"
   id="style1">
	.st0{display:none;fill:#FFFFFF;}
	.st1{display:none;fill:#DADBDD;}
	.st2{display:none;fill-rule:evenodd;clip-rule:evenodd;fill:#222222;stroke:#EEEFF1;stroke-width:20;stroke-miterlimit:10;}
	.st3{fill:#FEBD17;}
	.st4{fill-rule:evenodd;clip-rule:evenodd;fill:#353849;}
	.st5{display:none;fill:#FEBD17;}
	.st6{display:none;}
	.st7{display:inline;}
	.st8{fill:#156D62;}
	.st9{fill:#16E8D5;}
	.st10{display:inline;fill:#FCFCFC;}
	.st11{fill:#FFFFFF;stroke:#353849;stroke-width:24;stroke-miterlimit:10;}
	.st12{display:none;fill:#FFFFFF;stroke:#353849;stroke-width:17;stroke-miterlimit:10;}
	.st13{fill:#FFFFFF;stroke:#FFFFFF;stroke-width:3;stroke-miterlimit:10;}
	.st14{display:none;fill:#FFFFFF;stroke:#FFFFFF;stroke-width:3;stroke-miterlimit:10;}
	.st15{fill:#FFFFFF;stroke:#FFFFFF;stroke-width:5;stroke-miterlimit:10;}
	.st16{fill:#FFFFFF;stroke:#FFFFFF;stroke-width:9;stroke-miterlimit:10;}
	.st17{display:none;fill:none;stroke:#FFFFFF;stroke-width:12;stroke-miterlimit:10;}
	.st18{display:none;fill:#FFFFFF;stroke:#FFFFFF;stroke-miterlimit:10;}
	.st19{fill:#CCCCCC;}
	.st20{fill:#FFFFFF;}
</style>
<path
   style="fill:#ffffff;fill-opacity:1;fill-rule:nonzero;stroke:none;stroke-width:0.999999;stroke-linecap:butt;stroke-linejoin:miter;stroke-miterlimit:1.41421;stroke-dasharray:none;stroke-opacity:1;paint-order:markers stroke fill"
   d="M 0,0 V 499.99998 H 500.00002 V 0 Z"
   id="rect815-2"
   inkscape:connector-curvature="0" /><path
   id="rect815"
   inkscape:connector-curvature="0"
   class="st0"
   d="M-0.4,1v500H499V1H-0.4L-0.4,1z" />
<ellipse
   class="st1"
   cx="28.9"
   cy="257.6"
   rx="57"
   ry="77.1"
   id="ellipse1" />
<ellipse
   class="st1"
   cx="478"
   cy="257.6"
   rx="57"
   ry="77.1"
   id="ellipse2" />
<path
   id="rect841-5"
   class="st2"
   d="M107.2,57.3h271.4c29.9,0,54.1,24.2,54.1,54.1v271.7c0,29.9-24.2,54.1-54.1,54.1H107.2  c-29.9,0-54.1-24.2-54.1-54.1V111.4C53.2,81.5,77.4,57.3,107.2,57.3z" />
<circle
   class="st3"
   cx="250"
   cy="250"
   id="ellipse3"
   style="stroke-width:0.760456"
   r="190" />

<path
   class="st4"
   d="m 249.46735,389.764 c -65.97116,0 -98.9187,0 -119.38726,-20.444 C 109.53544,348.8 109.53544,315.892 109.53544,250 c 0,-65.892 0,-98.8 20.46856,-119.244 20.46856,-20.444 53.49219,-20.52 119.38726,-20.52 65.97117,0 98.91871,0 119.38727,20.444 20.46856,20.444 20.46856,53.428 20.46856,119.244 0,65.892 0,98.8 -20.46856,119.244 -20.39247,20.596 -53.34001,20.596 -119.31118,20.596 z"
   id="path3"
   style="stroke-width:0.760456"
   sodipodi:nodetypes="ssssssscs" />
<ellipse
   class="st5"
   cx="249.4"
   cy="224.5"
   rx="23.7"
   ry="23.8"
   id="ellipse4" />
<sodipodi:namedview
   bordercolor="#a52828"
   borderlayer="false"
   borderopacity="1"
   id="base"
   inkscape:current-layer="svg8"
   inkscape:cx="321.78571"
   inkscape:cy="179.64286"
   inkscape:deskcolor="#d1d1d1"
   inkscape:document-units="px"
   inkscape:guide-bbox="true"
   inkscape:measure-end="249.821,0"
   inkscape:measure-start="249.821,63.0357"
   inkscape:pagecheckerboard="false"
   inkscape:pageopacity="0.0"
   inkscape:pageshadow="2"
   inkscape:showpageshadow="0"
   inkscape:window-height="991"
   inkscape:window-maximized="1"
   inkscape:window-width="1920"
   inkscape:window-x="-9"
   inkscape:window-y="-9"
   inkscape:zoom="1.4"
   pagecolor="#ffffff"
   showgrid="false"
   showguides="true"
   units="px">
	<sodipodi:guide
   id="guide859"
   inkscape:locked="false"
   orientation="0,1"
   position="9.5882942,66.182616" />
	<sodipodi:guide
   id="guide863"
   inkscape:locked="false"
   orientation="1,0"
   position="66.145833,14.717448" />
	<sodipodi:guide
   id="guide865"
   inkscape:locked="false"
   orientation="0,1"
   position="91.281245,132.29167" />
	<sodipodi:guide
   id="guide867"
   inkscape:locked="false"
   orientation="1,0"
   position="4.943e-007,86.758659" />
</sodipodi:namedview>
<g
   id="layer1"
   transform="translate(0,-164.70832)"
   inkscape:groupmode="layer"
   inkscape:label="Capa 1"
   class="st6">
	
		<g
   id="g873"
   transform="matrix(0.12502118,0,0,0.12539554,24.589174,171.12417)"
   inkscape:export-xdpi="96"
   inkscape:export-ydpi="96"
   class="st7">
		<path
   id="rect837-6-1"
   inkscape:connector-curvature="0"
   inkscape:export-xdpi="96"
   inkscape:export-ydpi="96"
   class="st8"
   d="    M972.4,942.7h1661.2c17.1,0,30.8,19.4,30.8,43.3v720.6c0,24-13.7,43.3-30.8,43.3H972.4c-17.1,0-30.8-19.4-30.8-43.3V985.9    C941.6,961.9,955.3,942.7,972.4,942.7z" />
		<path
   id="rect837-0"
   inkscape:connector-curvature="0"
   inkscape:export-xdpi="96"
   inkscape:export-ydpi="96"
   class="st9"
   d="    M972.4,883.5h1661.2c17.1,0,30.8,19.4,30.8,43.3v720.6c0,24-13.7,43.3-30.8,43.3H972.4c-17.1,0-30.8-19.4-30.8-43.3V926.9    C941.6,902.9,955.3,883.5,972.4,883.5L972.4,883.5z" />
		
			<g
   id="text834"
   transform="matrix(1.1381216,0,0,1.1381216,480.70587,666.7529)"
   inkscape:export-xdpi="96"
   inkscape:export-ydpi="96"
   class="st6">
			<path
   id="path836"
   inkscape:connector-curvature="0"
   inkscape:export-xdpi="96"
   inkscape:export-ydpi="96"
   class="st10"
   d="     M853.6,565.4c-11.2,0-20.9-2.4-29.1-7.1c-8.3-4.9-14.6-11.8-19-20.7c-4.4-9.1-6.6-19.7-6.6-32c0-12.1,2.2-22.8,6.6-31.7     c4.4-9.1,10.8-16,19-20.7c8.3-4.9,18-7.3,29.1-7.3c7.3,0,14.2,1.1,20.7,3.5c6.5,2.2,12.2,5.5,17.1,9.8c2.1,1.7,3.2,3.9,3.2,6.6     c0,2-0.5,3.7-1.7,5.2c-1.1,1.3-2.4,2-3.9,2c-1.9,0-3.7-0.7-5.5-2.1c-5.3-3.9-10.2-6.8-14.6-8.3c-4.3-1.7-9.3-2.5-14.7-2.5     c-12.1,0-21.5,3.9-28,11.8s-9.8,19.1-9.8,33.8c0,14.8,3.3,26.2,9.8,34c6.5,7.8,15.9,11.8,28,11.8c5.3,0,10.1-0.8,14.4-2.5     c4.4-1.7,9.4-4.4,14.9-8.3c2.2-1.4,4-2.1,5.5-2.1s2.9,0.7,3.9,2.1c1.1,1.3,1.7,3,1.7,5c0,2.7-1.1,5-3.2,6.6     c-4.9,4.3-10.5,7.7-17.1,9.9C867.8,564.2,860.9,565.4,853.6,565.4L853.6,565.4z" />
			<path
   id="path838"
   inkscape:connector-curvature="0"
   inkscape:export-xdpi="96"
   inkscape:export-ydpi="96"
   class="st10"
   d="     M921.5,564.8c-2.4,0-4.5-0.7-6.1-2c-1.5-1.3-2.4-3.3-2.4-6V454.3c0-2.7,0.8-4.6,2.4-6c1.7-1.4,3.7-2.1,6.1-2.1     c2.4,0,4.4,0.7,6,2.1c1.5,1.3,2.4,3.3,2.4,6v102.6c0,2.7-0.8,4.6-2.4,6C925.9,564.1,923.9,564.8,921.5,564.8z" />
			<path
   id="path840"
   inkscape:connector-curvature="0"
   inkscape:export-xdpi="96"
   inkscape:export-ydpi="96"
   class="st10"
   d="     M961.6,564.8c-2.4,0-4.5-0.7-6.1-2c-1.5-1.3-2.4-3.3-2.4-6v-67.4c0-2.7,0.8-4.6,2.4-6c1.7-1.4,3.7-2.1,6.1-2.1     c2.4,0,4.4,0.7,6,2.1c1.5,1.3,2.4,3.3,2.4,6v67.4c0,2.7-0.8,4.6-2.4,6C966,564.1,964.1,564.8,961.6,564.8z M961.6,465.1     c-3.2,0-5.8-0.9-7.6-2.7c-1.9-1.7-2.8-4.1-2.8-7c0-2.9,0.9-5.2,2.8-6.8c1.9-1.7,4.4-2.7,7.6-2.7c3.1,0,5.6,0.9,7.4,2.7     c2,1.7,3,3.9,3,6.8c0,2.9-0.9,5.2-2.8,7C967.4,464.2,964.8,465.1,961.6,465.1z" />
			<path
   id="path842"
   inkscape:connector-curvature="0"
   inkscape:export-xdpi="96"
   inkscape:export-ydpi="96"
   class="st10"
   d="     M1028,565.1c-7.8,0-14.7-1.7-20.7-5.2c-5.8-3.4-10.5-8.3-13.7-14.6c-3.2-6.3-4.8-13.6-4.8-21.9c0-8.4,1.7-15.8,5-22.2     c3.4-6.5,8.2-11.4,14.3-14.9c6.1-3.6,13.1-5.3,20.9-5.3c4.2,0,8.4,0.6,12.6,1.8c4.3,1.2,8.1,2.9,11.5,5c3.6,2.4,5.3,5.2,5.3,8.5     c0,1.9-0.5,3.5-1.5,4.8c-1,1.2-2.3,1.8-3.8,1.8c-1,0-2-0.2-3-0.7s-2.3-1.3-3.8-2.4c-2.7-1.7-5.4-3.1-7.8-3.9     c-2.4-1-5.2-1.5-8.4-1.5c-7.5,0-13.4,2.6-17.6,7.7c-4.1,5.1-6.1,12.1-6.1,21.2c0,9.1,2,16.1,6.1,21.1c4.1,4.9,9.9,7.3,17.4,7.3     c3.3,0,6.2-0.5,8.8-1.5c2.5-1,5.2-2.4,7.8-3.9c1.2-0.8,2.4-1.4,3.6-2s2.4-0.8,3.3-0.8c1.5,0,2.8,0.7,3.8,2c1,1.2,1.5,2.7,1.5,4.6     c0,1.5-0.5,3-1.3,4.3c-0.8,1.2-2.1,2.5-4.2,3.8c-3.3,2.2-7.2,3.9-11.6,5.2C1037,564.5,1032.5,565.1,1028,565.1z" />
			<path
   id="path844"
   inkscape:connector-curvature="0"
   inkscape:export-xdpi="96"
   inkscape:export-ydpi="96"
   class="st10"
   d="     M1141.2,550.9c2,1.7,3,3.7,3,6.1c0,2.1-0.7,3.9-2.1,5.5s-3.2,2.4-5.2,2.4c-2.1,0-3.9-0.8-5.6-2.4L1090,526v30.7     c0,2.7-0.8,4.7-2.4,6.1c-1.5,1.3-3.6,2-6,2s-4.5-0.7-6.1-2c-1.5-1.4-2.4-3.5-2.4-6.1V454.3c0-2.7,0.8-4.6,2.4-6     c1.7-1.4,3.7-2.1,6.1-2.1s4.4,0.7,6,2.1c1.5,1.3,2.4,3.3,2.4,6v65l37.8-35.4c1.9-1.7,3.7-2.5,5.5-2.5c2.1,0,3.9,0.8,5.5,2.4     c1.5,1.5,2.4,3.3,2.4,5.5s-0.9,4-2.8,5.8l-29.5,27L1141.2,550.9z" />
			<path
   id="path846"
   inkscape:connector-curvature="0"
   inkscape:export-xdpi="96"
   inkscape:export-ydpi="96"
   class="st10"
   d="     M1295.7,481.1c18.1,0,27.2,10.9,27.2,32.7V557c0,2.6-0.8,4.6-2.4,6c-1.5,1.3-3.6,2-6.1,2c-2.4,0-4.4-0.7-6-2     c-1.5-1.4-2.4-3.4-2.4-6v-43c0-6.8-1.2-11.6-3.6-14.6c-2.4-3.1-6.2-4.6-11.5-4.6c-6.1,0-10.9,2.1-14.4,6.3     c-3.6,4.1-5.3,9.7-5.3,16.9v39c0,2.6-0.8,4.6-2.4,6c-1.5,1.3-3.6,2-6.1,2c-2.4,0-4.4-0.7-6-2c-1.5-1.4-2.4-3.4-2.4-6v-42.9     c0-6.8-1.2-11.6-3.6-14.6c-2.4-3.1-6.2-4.6-11.5-4.6c-6.1,0-10.9,2.1-14.6,6.3c-3.6,4.1-5.3,9.7-5.3,16.9v39c0,2.6-0.8,4.6-2.4,6     c-1.5,1.3-3.6,2-6,2s-4.5-0.7-6.1-2c-1.5-1.4-2.4-3.4-2.4-6v-67.5c0-2.4,0.8-4.4,2.5-5.8c1.7-1.4,3.6-2.1,6-2.1s4.2,0.7,5.6,2.1     c1.5,1.3,2.4,3.2,2.4,5.6v6.1c2.4-4.6,5.8-8.2,10.1-10.6c4.3-2.4,9.3-3.6,14.9-3.6c6.2,0,11.3,1.3,15.3,3.8     c4.1,2.6,7.1,6.5,9.1,11.8c2.4-4.8,6-8.5,10.8-11.3C1284.1,482.5,1289.6,481.1,1295.7,481.1z" />
			<path
   id="path848"
   inkscape:connector-curvature="0"
   inkscape:export-xdpi="96"
   inkscape:export-ydpi="96"
   class="st10"
   d="     M1408.9,543.6c1.5,0,2.8,0.6,3.8,1.8s1.5,2.7,1.5,4.6c0,3.2-2,5.9-6,8.1c-3.9,2.2-8.1,3.9-12.7,5.2c-4.6,1.2-8.9,1.8-13.1,1.8     c-12.8,0-22.9-3.7-30.4-11.2c-7.4-7.5-11.1-17.8-11.1-30.7c0-8.3,1.6-15.6,4.8-22.1c3.3-6.5,7.9-11.4,13.7-14.9     c6-3.6,12.7-5.3,20.3-5.3c10.9,0,19.4,3.5,25.7,10.5c6.3,7,9.5,16.4,9.5,28.2c0,4.4-2,6.6-6,6.6h-51.2     c1.1,17.1,9.3,25.7,24.7,25.7c4.1,0,7.6-0.5,10.6-1.7c3-1.1,6.1-2.6,9.5-4.3c0.3-0.2,1.2-0.7,2.7-1.3     C1406.7,544,1407.9,543.6,1408.9,543.6z M1380.1,493.3c-6.4,0-11.5,2-15.4,6.1c-3.9,4.1-6.2,9.9-7,17.2h42.8     c-0.3-7.5-2.3-13.3-5.8-17.2C1391.2,495.3,1386.3,493.3,1380.1,493.3z" />
			<path
   id="path850"
   inkscape:connector-curvature="0"
   inkscape:export-xdpi="96"
   inkscape:export-ydpi="96"
   class="st10"
   d="     M1441.4,532.5c-1.3,0-2.5-0.5-3.5-1.5s-1.5-2.4-1.7-3.9l-5-70.3c-0.3-3.1,0.5-5.6,2.4-7.4c2-2,4.6-3,7.8-3c3.1,0,5.6,1,7.4,3     c2,1.9,2.8,4.4,2.5,7.4l-5,70.3c-0.1,1.7-0.6,3.2-1.5,4.2C1444,532,1442.9,532.5,1441.4,532.5z M1441.4,564.8c-3,0-5.5-1-7.6-3     c-2-2-3-4.6-3-7.7c0-3.1,1-5.6,3-7.7c2.1-2.1,4.6-3.2,7.6-3.2s5.5,1.1,7.4,3.2c2,2,3,4.6,3,7.7c0,3.1-1,5.6-3,7.7     C1446.9,563.8,1444.5,564.8,1441.4,564.8z" />
		</g>
		<g
   transform="translate(1.4065934065934016 1.4065934065934016) scale(2.81 2.81)"
   id="g6">
			<path
   class="st11"
   d="M666.6,485.9c-7.6-12.7-19.2-20.8-33.7-23.2c-14.5-2.4-29,1.2-41.2,10.4c-12.2,9.3-20.9,22.6-24.4,37.6     l-70.9,304.6l-41.2-46.9c-9.3-10.4-22.7-16.2-36.6-16.2c-15.1,0-29,6.4-40.7,18c-22.1,22.6-25,59.1-5.8,81.1l150.5,170.9     c26.7,30.7,62.2,50.4,102.2,57.3c61,10.4,123.1-11.6,169.6-53.9c34.3-31.3,61-74.1,72-123.4L896,774.8     c7.6-31.3-10.5-60.8-39.5-66c-13.9-2.3-28.5,1.2-41.2,10.4l0.6-2.9c3.5-15.1,1.2-30.1-5.8-42.9c-7.6-12.7-19.2-20.8-33.7-23.2     c-17.4-2.9-34.9,3.5-47.6,15.6c-4.1-20.8-19.2-37.6-40.1-41.1c-13.9-2.3-28.5,1.2-41.2,10.4l25-106.6     C676.5,513.7,674.2,498.7,666.6,485.9z"
   id="path4" />
			<path
   class="st12"
   d="M773.3,580.6c-4.1,2.6-9.6,2.6-13.1,0c-3.4-2.6-2.8-7.3,0.7-9.9c83.3-57.9,93.6-153.2,21.3-212.7     s-197.5-61-281.4-3.1c-83.3,57.9-93.6,153.2-22,212.7c3.4,2.6,2.8,7.3-0.7,9.9c-3.4,2.6-9.6,2.6-13.1,0     c-78.4-65.2-67.4-169.4,23.4-232.5c91.6-63,229.9-61.5,307.6,3.2S864.1,517.6,773.3,580.6z"
   id="path5" />
			<path
   class="st12"
   d="M731.9,555.2c-3.4,2.4-8.3,3-11.7,0.6c-4.1-2.4-4.8-7.9-1.4-11.5c33.1-38.1,32.4-89.6-2.8-123.5     c-40-38.1-110.3-39.3-156.5-1.8c-32.4,26-46.2,63.5-36.5,98.6c1.4,4.2-2.1,9.1-6.9,10.3c-4.8,1.2-10.3-1.2-11.7-5.4     c-11-41.2,4.8-84.7,42-114.4c54.5-43.6,136.5-42.4,183.4,2.4c40.7,39.3,42,99.8,2.8,144L731.9,555.2z"
   id="path6" />
		</g>
		<g
   transform="translate(1.4065934065934016 1.4065934065934016) scale(2.81 2.81)"
   id="g9">
			<path
   class="st13"
   d="M665.9,486.7c-7.6-12.7-19.2-20.8-33.7-23.2c-14.5-2.4-29,1.2-41.2,10.4c-12.2,9.3-20.9,22.6-24.4,37.6     l-70.9,304.6l-41.2-46.9c-9.3-10.4-22.7-16.2-36.6-16.2c-15.1,0-29,6.4-40.7,18c-22.1,22.6-25,59.1-5.8,81.1L521.9,1023     c26.7,30.7,62.2,50.4,102.2,57.3c61,10.4,123.1-11.6,169.6-53.9c34.3-31.3,61-74.1,72-123.4l29.6-127.4     c7.6-31.3-10.5-60.8-39.5-66c-13.9-2.3-28.5,1.2-41.2,10.4l0.6-2.9c3.5-15.1,1.2-30.1-5.8-42.9c-7.6-12.7-19.2-20.8-33.7-23.2     c-17.4-2.9-34.9,3.5-47.6,15.6c-4.1-20.8-19.2-37.6-40.1-41.1c-13.9-2.3-28.5,1.2-41.2,10.4l25-106.6     C675.8,514.5,673.5,499.4,665.9,486.7z"
   id="path7" />
			<path
   class="st14"
   d="M772.5,581.3c-4.1,2.6-9.6,2.6-13.1,0c-3.4-2.6-2.8-7.3,0.7-9.9c83.3-57.9,93.6-153.2,21.3-212.7     s-197.5-61-281.4-3.1c-83.3,57.9-93.6,153.2-22,212.7c3.4,2.6,2.8,7.3-0.7,9.9c-3.4,2.6-9.6,2.6-13.1,0     c-78.4-65.2-67.4-169.4,23.4-232.5c91.5-63.1,229.8-61.5,307.5,3.1S863.3,518.3,772.5,581.3z"
   id="path8" />
			<path
   class="st14"
   d="M731.1,556c-3.4,2.4-8.3,3-11.7,0.6c-4.1-2.4-4.8-7.9-1.4-11.5c33.1-38.1,32.4-89.6-2.8-123.5     c-40-38.1-110.3-39.3-156.5-1.8c-32.4,26-46.2,63.5-36.5,98.6c1.4,4.2-2.1,9.1-6.9,10.3c-4.8,1.2-10.3-1.2-11.7-5.4     c-11-41.2,4.8-84.7,42-114.4c54.5-43.6,136.5-42.4,183.4,2.4c40.7,39.3,42,99.8,2.8,144L731.1,556z"
   id="path9" />
		</g>
	</g>
</g>
<g
   class="st6"
   id="g13">
	<g
   class="st7"
   id="g12">
		<path
   class="st15"
   d="M276.1,453.3L276.1,453.3"
   id="path10" />
		<path
   class="st16"
   d="M270.9,211.9c23.6-26.5,18.5-58.2-11.8-75.4s-74.1-10.6-94.2,13.2c-18.5,22.5-11.8,51.6,3.4,62.2    c0-11.9-1.7-23.8,0-35.7c1.7-27.8,40.4-46.3,72.4-34.4c20.2,7.9,30.3,21.2,30.3,38.4C270.9,190.7,270.9,201.3,270.9,211.9    L270.9,211.9z"
   id="path11" />
		<path
   class="st16"
   d="M379.5,295.3c0,24.8,0,48.4,2.5,73.2c-1.2,24.8-12.4,44.7-29.8,62.1c-13.7,12.4-29.8,19.9-47.2,23.6    c-1.7,0.2-4,1.3-8.7,1.2c-1.2,0-2.5,0-2.5,0h-1.2h-1.2c-3.7,0-6.2,0-8.7,0s-3.7,0-5,0c-1.2,0-2.5,0-2.5,0c-8.7,0-17.4-2.5-24.8-5    c-13.7-5-26.1-12.4-36-22.3c-12.4-11.2-21.1-26.1-29.8-41c-8.7-16.1-18.6-31-28.5-45.9c-9.9-13.7-19.9-28.5-27.3-44.7    c-2.5-5-5-9.9-5-14.9c0,0,0-1.2,0-2.5c-1.2-11.2,9.9-23.6,24.8-21.1c5,1.2,9.9,3.7,14.9,6.2c8.7,3.7,16.1,9.9,23.6,16.1    c1.2,1.2,2.5,2.5,3.7,5c0-1.2,0-2.5,0-3.7c0-31,0-62.1,0-93.1c0-11.2,5-21.1,16.1-26.1c17.4-8.7,38.5,2.5,39.7,22.3    c0,17.4,0,36,0,53.4c0,1.2,0,2.5,0,3.7c7.4-6.2,16.1-7.4,24.8-5c7.4,2.5,13.7,8.7,17.4,16.1c5-3.7,11.2-6.2,17.4-6.2    c13.7-1.2,27.3,11.2,28.5,24.8c0,2.5,0,2.5,3.7,1.2C355.9,263.1,379.5,275.5,379.5,295.3L379.5,295.3z M348.4,414.5    c13.7-16.1,19.9-33.5,17.4-53.4c0-19.9,0-41,0-60.8c0-2.5,0-3.7,0-5c-1.2-7.4-8.7-14.9-16.1-14.9s-14.9,7.4-16.1,14.9    c-1.2,2.5,1.2,6.2-1.2,7.4c-1.2,1.2-5,0-7.4,0l0,0c-2.5,0-2.5,0-2.5-2.5c0-7.4,0-16.1,0-23.6c0-9.9-7.4-17.4-16.1-17.4    s-16.1,7.4-16.1,17.4c0,1.2,0,3.7,0,6.2s1.2,6.2,0,7.4c-1.2,1.2-5,0-7.4,0c-2.5,1.2-2.5,0-2.5-2.5c0-8.7,0-16.1,0-24.8    c0-6.2-3.7-11.2-9.9-13.7c-5-3.7-9.9-2.5-16.1,1.2c-5,2.5-7.4,8.7-7.4,14.9c0,9.9,0,19.9,0,29.8c0,2.5,1.2,6.2,0,7.4    c-1.2,1.2-5,0-7.4,0c-2.5,0-3.7-1.2-3.7-3.7c0-36,0-73.2,0-109.2c0-1.2,0-3.7,0-5c-1.2-8.7-9.9-14.9-18.6-13.7    c-6.2,1.2-13.7,7.4-13.7,17.4c0,39.7,0,79.4,0,119.1c0,1.2,0,1.2,0,3.7c-1.2-1.2-2.5-2.5-2.5-2.5c-7.4-8.7-16.1-16.1-23.6-22.3    c-8.7-6.2-16.1-13.7-27.3-16.1c-3.7-2.5-8.7-2.5-12.4,1.2s-2.5,7.4-1.2,12.4c3.7,9.9,8.7,17.4,12.4,24.8    c16.1,26.1,33.5,52.1,48.4,78.2c6.2,9.9,12.4,19.9,21.1,28.5c22.3,24.8,50.9,33.5,83.2,27.3C321.1,439.3,336,429.4,348.4,414.5    L348.4,414.5z"
   id="path12" />
	</g>
</g>
<polygon
   class="st17"
   points="-65.9,291.1 -54.7,291.1 -35.3,297.7 -12.8,315.6 -5.7,324.8 -5.7,215.5 5.6,198.2 17.8,198.2   35.2,203.2 35.2,247.3 37.2,327.3 40.3,276.8 52.5,268.6 72,270.6 73.7,313.5 83.2,284.9 98.5,276.8 118,284.9 118,318.6   132.2,302.3 149.7,305.6 164.6,311.3 164.6,415.7 135.3,450.4 107.7,465.7 71.3,474.1 21.9,454.5 -12.8,409.5 -48.6,348.3   -70,311.3 "
   id="polygon13" />
<polygon
   class="st18"
   points="151.3,75 134.4,91.4 173.3,126.2 179,119.7 "
   id="polygon14" />
<polygon
   class="st18"
   points="202,58 211.8,106.1 227.7,107.5 234.6,57.2 "
   id="polygon15" />
<polygon
   class="st18"
   points="287.6,73.5 304.5,89.9 265.6,124.7 259.9,118.2 "
   id="polygon16" />
<g
   id="g19"
   transform="matrix(0.76091311,0,0,0.76,59.162991,60)">
	<rect
   x="122.5"
   y="264.39999"
   class="st19"
   width="255"
   height="37"
   id="rect16" />
	<ellipse
   class="st19"
   cx="250"
   cy="301.39999"
   rx="127.5"
   ry="28.6"
   id="ellipse16" />
	<ellipse
   class="st20"
   cx="250"
   cy="264.39999"
   rx="127.5"
   ry="28.6"
   id="ellipse17" />
	<ellipse
   class="st8"
   cx="250"
   cy="251.89999"
   rx="102.5"
   ry="21.9"
   id="ellipse18" />
	<rect
   x="147.5"
   y="191.89999"
   class="st8"
   width="205"
   height="60"
   id="rect18" />
	<ellipse
   class="st9"
   cx="250"
   cy="191.89999"
   rx="102.5"
   ry="21.9"
   id="ellipse19" />
</g>
</svg>
