<?xml version="1.0" encoding="UTF-8" standalone="no"?>
<!-- Created with Inkscape (http://www.inkscape.org/) -->

<svg
   width="500"
   height="500"
   viewBox="0 0 132.29166 132.29167"
   version="1.1"
   id="svg8"
   inkscape:version="1.3.2 (091e20e, 2023-11-25, custom)"
   sodipodi:docname="icon-code.svg"
   inkscape:export-filename="icon-code.png"
   inkscape:export-xdpi="96"
   inkscape:export-ydpi="96"
   xmlns:inkscape="http://www.inkscape.org/namespaces/inkscape"
   xmlns:sodipodi="http://sodipodi.sourceforge.net/DTD/sodipodi-0.dtd"
   xmlns="http://www.w3.org/2000/svg"
   xmlns:svg="http://www.w3.org/2000/svg"
   xmlns:rdf="http://www.w3.org/1999/02/22-rdf-syntax-ns#"
   xmlns:cc="http://creativecommons.org/ns#"
   xmlns:dc="http://purl.org/dc/elements/1.1/">
  <defs
     id="defs2">
    <inkscape:path-effect
       effect="fillet_chamfer"
       id="path-effect2"
       is_visible="true"
       lpeversion="1"
       nodesatellites_param="F,0,0,1,0,0.92106002,0,1 @ F,0,0,1,0,0.8596017,0,1 @ F,0,0,1,0,0.18516097,0,1 @ F,0,0,1,0,0.58846001,0,1 @ F,0,0,1,0,0.5474952,0,1 @ F,0,0,1,0,0.072449474,0,1"
       radius="0"
       unit="px"
       method="bezier"
       mode="F"
       chamfer_steps="1"
       flexible="false"
       use_knot_distance="true"
       apply_no_radius="true"
       apply_with_radius="true"
       only_selected="false"
       hide_knots="false" />
    <inkscape:path-effect
       effect="fillet_chamfer"
       id="path-effect1"
       is_visible="true"
       lpeversion="1"
       nodesatellites_param="F,0,0,1,0,1.6468415,0,1 @ F,0,0,1,0,4.0005769,0,1 @ F,0,0,1,0,1.6800857,0,1 @ F,0,0,1,0,6.9004227,0,1 @ F,0,0,1,0,2.5577927,0,1 @ F,0,0,1,0,5.2356392,0,1"
       radius="0"
       unit="px"
       method="bezier"
       mode="F"
       chamfer_steps="1"
       flexible="false"
       use_knot_distance="true"
       apply_no_radius="true"
       apply_with_radius="true"
       only_selected="false"
       hide_knots="false" />
    <inkscape:path-effect
       effect="fillet_chamfer"
       id="path-effect1-0"
       is_visible="true"
       lpeversion="1"
       nodesatellites_param="F,0,0,1,0,1.6800857,0,1 @ F,0,0,1,0,1.6800857,0,1 @ F,0,0,1,0,1.6800857,0,1 @ F,0,0,1,0,5.7659051,0,1 @ F,0,0,1,0,1.4334148,0,1 @ F,0,0,1,0,4.4517236,0,1"
       radius="0"
       unit="px"
       method="bezier"
       mode="F"
       chamfer_steps="1"
       flexible="false"
       use_knot_distance="true"
       apply_no_radius="true"
       apply_with_radius="true"
       only_selected="false"
       hide_knots="false" />
    <inkscape:path-effect
       effect="fillet_chamfer"
       id="path-effect1-1"
       is_visible="true"
       lpeversion="1"
       nodesatellites_param="F,0,0,1,0,1.6468415,0,1 @ F,0,0,1,0,4.0005769,0,1 @ F,0,0,1,0,1.6800857,0,1 @ F,0,0,1,0,6.9004227,0,1 @ F,0,0,1,0,2.5577927,0,1 @ F,0,0,1,0,5.2356392,0,1"
       radius="0"
       unit="px"
       method="bezier"
       mode="F"
       chamfer_steps="1"
       flexible="false"
       use_knot_distance="true"
       apply_no_radius="true"
       apply_with_radius="true"
       only_selected="false"
       hide_knots="false" />
  </defs>
  <sodipodi:namedview
     id="base"
     pagecolor="#ffffff"
     bordercolor="#a52828"
     borderopacity="1"
     inkscape:pageopacity="0.0"
     inkscape:pageshadow="2"
     inkscape:zoom="0.98994949"
     inkscape:cx="135.86552"
     inkscape:cy="155.05842"
     inkscape:document-units="px"
     inkscape:current-layer="g1"
     showgrid="false"
     units="px"
     borderlayer="false"
     inkscape:pagecheckerboard="false"
     inkscape:window-width="1920"
     inkscape:window-height="1001"
     inkscape:window-x="-9"
     inkscape:window-y="-9"
     inkscape:window-maximized="1"
     showguides="false"
     inkscape:guide-bbox="true"
     inkscape:measure-start="249.821,63.0357"
     inkscape:measure-end="249.821,0"
     inkscape:showpageshadow="2"
     inkscape:deskcolor="#d1d1d1">
    <sodipodi:guide
       position="46.638532,66.07564"
       orientation="0,1"
       id="guide859"
       inkscape:locked="false" />
    <sodipodi:guide
       position="66.145833,14.717448"
       orientation="1,0"
       id="guide863"
       inkscape:locked="false" />
    <sodipodi:guide
       position="91.281245,132.29167"
       orientation="0,1"
       id="guide865"
       inkscape:locked="false" />
    <sodipodi:guide
       position="4.943e-007,86.758659"
       orientation="1,0"
       id="guide867"
       inkscape:locked="false" />
    <sodipodi:guide
       position="71.36096,83.381345"
       orientation="0,-1"
       id="guide1"
       inkscape:locked="false" />
    <sodipodi:guide
       position="69.890978,48.903575"
       orientation="0,-1"
       id="guide2"
       inkscape:locked="false" />
  </sodipodi:namedview>
  <metadata
     id="metadata5">
    <rdf:RDF>
      <cc:Work
         rdf:about="">
        <dc:format>image/svg+xml</dc:format>
        <dc:type
           rdf:resource="http://purl.org/dc/dcmitype/StillImage" />
      </cc:Work>
    </rdf:RDF>
  </metadata>
  <g
     inkscape:label="Capa 1"
     inkscape:groupmode="layer"
     id="layer1"
     transform="translate(0,-164.70832)">
    <path
       style="display:inline;opacity:1;fill:#ffffff;fill-opacity:1;fill-rule:nonzero;stroke:none;stroke-width:0.264583;stroke-linecap:butt;stroke-linejoin:miter;stroke-miterlimit:1.41421;stroke-dasharray:none;stroke-opacity:1;paint-order:markers stroke fill"
       d="M 0,164.70832 V 296.99998 H 132.29167 V 164.70832 Z"
       id="rect815"
       inkscape:connector-curvature="0" />
    <g
       id="g1"
       transform="translate(0,0.13363476)">
      <circle
         class="st3"
         cx="66.145836"
         cy="230.85416"
         id="ellipse3"
         style="fill:#febd17;stroke-width:0.201204"
         r="50.270832"
         inkscape:label="ellipse3" />
      <rect
         style="display:none;opacity:1;fill:#ff0000;fill-opacity:1;fill-rule:evenodd;stroke:none;stroke-width:6.08542;stroke-linecap:round;stroke-linejoin:miter;stroke-miterlimit:4;stroke-dasharray:none;stroke-opacity:1;paint-order:normal"
         id="rect828"
         width="100.54166"
         height="100.54166"
         x="15.875"
         y="180.58333" />
      <path
         d="m 66.145832,193.87501 c -17.434719,0 -26.172101,0.02 -31.587735,5.42913 -5.415634,5.40914 -5.41569,14.11611 -5.41569,31.55001 0,17.43392 7.7e-5,26.14092 5.435844,31.57017 5.415633,5.40913 14.132884,5.40897 31.587735,5.40897 17.454855,0 26.172081,8e-5 31.567582,-5.44928 5.415632,-5.40913 5.415692,-14.1161 5.415692,-31.55001 0,-17.41379 -6e-5,-26.14088 -5.415692,-31.55001 -5.415633,-5.40914 -14.132881,-5.40898 -31.587736,-5.40898 z"
         style="clip-rule:evenodd;fill:#353849;fill-rule:evenodd;stroke-width:0.201204"
         id="path1" />
      <rect
         style="display:none;opacity:1;fill:#000000;fill-opacity:1;fill-rule:evenodd;stroke:#4ceedf;stroke-width:6.61458;stroke-linecap:round;stroke-linejoin:miter;stroke-miterlimit:10;stroke-dasharray:none;stroke-opacity:1;paint-order:markers fill stroke"
         id="rect841-5"
         width="93.927078"
         height="93.927086"
         x="19.182291"
         y="183.89061"
         ry="13.378917" />
      <g
         id="g2"
         transform="matrix(0.45894141,0,0,0.45894141,37.918602,207.62027)"
         style="display:inline;stroke-width:5.32405;stroke-dasharray:none">
        <path
           d="M 67.871565,2.2469507 45.774476,97.202444 c -0.107603,0.46239 -0.202851,1.231602 -0.06188,1.682863 0.407358,1.304013 1.710719,2.696783 3.374895,3.163293 0.09847,0.0276 0.25992,0.0657 0.360211,0.0856 2.026861,0.40321 4.410623,-0.35543 5.22743,-1.39376 0.19936,-0.25343 0.324527,-0.776937 0.398186,-1.093477 L 77.315639,4.0635818 c 0.06853,-0.2945047 0.130228,-0.7798496 0.0888,-1.0790784 -0.255684,-1.8467179 -1.854163,-3.9857749 -3.697836,-4.4438768 -0.03885,-0.00965 -0.102176,-0.023859 -0.141404,-0.031744 -1.874497,-0.3767667 -3.912956,0.93103273 -4.949054,2.09456353 -0.337469,0.3789748 -0.629282,1.14805567 -0.744578,1.64350467 z"
           style="display:inline;fill:#16e8d5;fill-opacity:1;stroke:#16e8d5;stroke-width:5.32405;stroke-dasharray:none;stroke-opacity:1"
           id="path5"
           inkscape:path-effect="#path-effect2"
           inkscape:original-d="M 68.080327,1.3498609 45.579644,98.039675 c -0.02216,1.527677 1.562064,3.553035 3.687131,4.055225 2.386794,0.56404 5.361642,-0.55784 5.673168,-1.87475 L 77.439726,3.5303339 c 0.02811,-1.9682128 -1.744508,-4.5444251 -3.803665,-5.0063838 -2.316898,-0.5197814 -4.908026,1.58130605 -5.555734,2.8259108 z"
           sodipodi:nodetypes="ccsccsc" />
      </g>
      <path
         d="m 50.986741,213.64528 -10.905815,13.32943 c -1.399105,1.71004 -1.433559,4.51003 -0.07695,6.25397 l 9.657687,12.41514 c 0.569721,0.73238 1.783771,1.3261 2.711657,1.3261 3.431798,0 4.344111,-2.45946 2.037786,-5.49337 l -7.020819,-9.23568 c -0.85489,-1.12459 -0.854879,-2.94789 2.5e-5,-4.07246 l 8.028231,-10.56064 c 1.749933,-2.30193 0.855002,-4.54519 -1.998884,-5.01046 -0.767747,-0.12516 -1.856971,0.34403 -2.432914,1.04797 z"
         style="display:inline;fill:#ffffff;stroke-width:0.798553"
         id="path2"
         inkscape:path-effect="#path-effect1"
         inkscape:original-d="M 52.029578,212.37069 37.547622,230.071 50.69323,246.96992 h 7.893843 L 45.842368,230.20463 58.587073,213.43976 Z"
         sodipodi:nodetypes="ccccccc"
         transform="translate(0,0.94700554)" />
      <path
         d="m 50.986741,213.64528 -10.905815,13.32943 c -1.399105,1.71004 -1.433559,4.51003 -0.07695,6.25397 l 9.657687,12.41514 c 0.569721,0.73238 1.783771,1.3261 2.711657,1.3261 3.431798,0 4.344111,-2.45946 2.037786,-5.49337 l -7.020819,-9.23568 c -0.85489,-1.12459 -0.854879,-2.94789 2.5e-5,-4.07246 l 8.028231,-10.56064 c 1.749933,-2.30193 0.855002,-4.54519 -1.998884,-5.01046 -0.767747,-0.12516 -1.856971,0.34403 -2.432914,1.04797 z"
         style="display:inline;fill:#ffffff;stroke-width:0.798553"
         id="path2-8"
         inkscape:path-effect="#path-effect1-1"
         inkscape:original-d="M 52.029578,212.37069 37.547622,230.071 50.69323,246.96992 h 7.893843 L 45.842368,230.20463 58.587073,213.43976 Z"
         sodipodi:nodetypes="ccccccc"
         transform="rotate(180,66.313825,230.24701)" />
      <path
         d="m 50.965689,213.67101 -12.354178,15.09967 c -0.58757,0.71815 -0.602039,1.89404 -0.03232,2.62642 l 11.082466,14.24672 c 0.569721,0.73238 1.783771,1.3261 2.711657,1.3261 h 0.447852 c 3.184421,0 4.203653,-2.0551 2.276517,-4.59019 l -8.387849,-11.03397 c -0.479089,-0.63023 -0.479083,-1.65203 1.4e-5,-2.28225 l 9.183103,-12.0798 c 1.487922,-1.95727 0.726986,-3.86465 -1.699597,-4.26026 l -0.505584,-0.0824 c -0.915795,-0.14931 -2.134513,0.31183 -2.722083,1.02998 z"
         style="display:none;fill:#ffffff;stroke-width:0.798553"
         id="path2-3"
         inkscape:path-effect="#path-effect1-0"
         inkscape:original-d="M 52.029578,212.37069 37.547622,230.071 50.69323,246.96992 h 7.893843 L 45.842368,230.20463 58.587073,213.43976 Z"
         sodipodi:nodetypes="ccccccc"
         transform="matrix(-1,0,0,1,131.86134,0.26090642)" />
    </g>
  </g>
</svg>
