<?xml version="1.0" encoding="UTF-8" standalone="no"?>
<!-- Generator: Adobe Illustrator 27.1.0, SVG Export Plug-In . SVG Version: 6.00 Build 0)  -->

<svg
   version="1.1"
   id="svg8"
   x="0px"
   y="0px"
   viewBox="0 0 499.4 500"
   style="enable-background:new 0 0 499.4 500;"
   xml:space="preserve"
   sodipodi:docname="emails.svg"
   inkscape:version="1.3.2 (091e20e, 2023-11-25, custom)"
   xmlns:inkscape="http://www.inkscape.org/namespaces/inkscape"
   xmlns:sodipodi="http://sodipodi.sourceforge.net/DTD/sodipodi-0.dtd"
   xmlns="http://www.w3.org/2000/svg"
   xmlns:svg="http://www.w3.org/2000/svg"><defs
   id="defs4" /><sodipodi:namedview
   id="namedview4"
   pagecolor="#ffffff"
   bordercolor="#000000"
   borderopacity="0.25"
   inkscape:showpageshadow="2"
   inkscape:pageopacity="0.0"
   inkscape:pagecheckerboard="0"
   inkscape:deskcolor="#d1d1d1"
   inkscape:zoom="1.554"
   inkscape:cx="250"
   inkscape:cy="250"
   inkscape:window-width="1920"
   inkscape:window-height="991"
   inkscape:window-x="-9"
   inkscape:window-y="-9"
   inkscape:window-maximized="1"
   inkscape:current-layer="svg8" />
<style
   type="text/css"
   id="style1">
	.st0{fill:#222222;}
	.st1{fill:#FEBD17;}
	.st2{fill-rule:evenodd;clip-rule:evenodd;fill:#353849;}
	.st3{fill:#FFFFFF;}
	.st4{fill:#16E8D5;}
	.st5{display:none;fill:#FFFFFF;}
	.st6{display:none;}
	.st7{display:inline;fill:#FFFFFF;}
</style>
<path
   style="fill:#ffffff;fill-opacity:1;fill-rule:nonzero;stroke:none;stroke-width:0.999999;stroke-linecap:butt;stroke-linejoin:miter;stroke-miterlimit:1.41421;stroke-dasharray:none;stroke-opacity:1;paint-order:markers stroke fill"
   d="M 0,0 V 499.99998 H 500.00002 V 0 Z"
   id="rect815"
   inkscape:connector-curvature="0" /><g
   id="layer1"
   transform="matrix(0.76091311,0,0,0.76,60,60)">
	<path
   id="rect841-5"
   class="st0"
   d="m 113.8,60 h 271.7 c 29.9,0 54.1,24.2 54.1,54.1 v 271.7 c 0,29.9 -24.2,54.1 -54.1,54.1 H 113.8 c -29.9,0 -54.1,-24.2 -54.1,-54.1 V 114.1 C 59.7,84.2 83.9,60 113.8,60 Z" />
	<ellipse
   class="st1"
   cx="249.7"
   cy="250"
   rx="249.7"
   ry="250"
   id="ellipse1" />
	<rect
   x="121.4"
   y="127.2"
   class="st2"
   width="256.60001"
   height="245.60001"
   id="rect1" />
	<path
   class="st2"
   d="m 249.8,433.9 c -86.7,0 -130,0 -156.9,-26.9 -27,-27 -27,-70.3 -27,-157 0,-86.7 0,-130 26.9,-156.9 26.9,-26.9 70.3,-26.9 156.9,-26.9 86.7,0 130,0 156.9,26.9 26.9,26.9 26.9,70.3 26.9,156.9 0,86.7 0,130 -26.9,156.9 -26.8,27 -70.1,27 -156.8,27 z M 190.1,148.8 c 0,-7.6 -6.2,-13.8 -13.8,-13.8 -7.6,0 -13.8,6.2 -13.8,13.8 v 23 h -23 c -7.6,0 -13.8,6.2 -13.8,13.8 0,7.6 6.2,13.8 13.8,13.8 h 23 v 23 c 0,7.6 6.2,13.8 13.8,13.8 7.6,0 13.8,-6.2 13.8,-13.8 v -23 h 23 c 7.6,0 13.8,-6.2 13.8,-13.8 0,-7.6 -6.2,-13.8 -13.8,-13.8 h -23 z m 96.5,23 c -7.6,0 -13.8,6.2 -13.8,13.8 0,7.6 6.2,13.8 13.8,13.8 h 73.6 c 7.6,0 13.8,-6.2 13.8,-13.8 0,-7.6 -6.2,-13.8 -13.8,-13.8 z m 0,110.3 c -7.6,0 -13.8,6.2 -13.8,13.8 0,7.6 6.2,13.8 13.8,13.8 h 73.6 c 7.6,0 13.8,-6.2 13.8,-13.8 0,-7.6 -6.2,-13.8 -13.8,-13.8 z m -128.2,4.1 c -5.3,-5.3 -14.1,-5.3 -19.5,0 -5.3,5.3 -5.3,14.1 0,19.5 l 17.8,17.8 -17.8,17.8 c -5.3,5.3 -5.3,14.1 0,19.5 5.3,5.3 14.1,5.3 19.5,0 L 176.2,343 194,360.8 c 5.3,5.3 14.1,5.3 19.5,0 5.3,-5.3 5.3,-14.1 0,-19.5 l -17.8,-17.8 17.8,-17.8 c 5.3,-5.3 5.3,-14.1 0,-19.5 -5.3,-5.3 -14.1,-5.3 -19.5,0 L 176.2,304 Z m 128.2,51.1 c -7.6,0 -13.8,6.2 -13.8,13.8 0,7.6 6.2,13.8 13.8,13.8 h 73.6 c 7.6,0 13.8,-6.2 13.8,-13.8 0,-7.6 -6.2,-13.8 -13.8,-13.8 z"
   id="path1" />
</g>
<g
   id="XMLID_348_"
   transform="matrix(0.76091311,0,0,0.76,60,60)">
	<path
   id="XMLID_00000078044779799427210770000006536501570604665515_"
   class="st3"
   d="m 118.1,331.1 c 0,9.8 8,17.8 17.8,17.8 h 227.6 c 9.8,0 17.8,-8 17.8,-17.8 v -152 c 0,-4.8 -5.4,-7.5 -9.3,-4.7 l -14.6,10.8 -100.6,73.7 c -2.1,1.5 -4.6,2.3 -7.1,2.3 -2.5,0 -4.9,-0.8 -7.1,-2.3 L 142,185.1 127.4,174.4 c -3.9,-2.8 -9.3,-0.1 -9.3,4.7 v 54.1" />
	<path
   id="XMLID_351_"
   class="st4"
   d="m 251.6,236.8 109,-79.9 c 2.5,-1.8 1.2,-5.8 -1.9,-5.8 h -218 c -3.1,0 -4.4,4 -1.9,5.8 l 108.9,79.9 c 1.2,0.9 2.7,0.9 3.9,0 z" />
</g>
<path
   class="st5"
   d="M189.3,292.8c2.3,0,4.2-1.9,4.2-4.2v-12.5c0-2.3-1.9-4.2-4.2-4.2h-12.5c-2.3,0-4.2,1.9-4.2,4.2  c0,1.2-0.9,2.1-2.1,2.1c-1.2,0-2.1-0.9-2.1-2.1c0-2.3-1.9-4.2-4.2-4.2h-12.5c-2.3,0-4.2,1.9-4.2,4.2c0,1.2-0.9,2.1-2.1,2.1  s-2.1-0.9-2.1-2.1c0-2.3-1.9-4.2-4.2-4.2h-12.5c-2.3,0-4.2,1.9-4.2,4.2c0,1.2-0.9,2.1-2.1,2.1s-2.1-0.9-2.1-2.1  c0-2.3-1.9-4.2-4.2-4.2h-12.5c-2.3,0-4.2,1.9-4.2,4.2v12.5c0,2.3,1.9,4.2,4.2,4.2c1.2,0,2.1,0.9,2.1,2.1s-0.9,2.1-2.1,2.1  c-2.3,0-4.2,1.9-4.2,4.2v12.5c0,2.3,1.9,4.2,4.2,4.2c1.2,0,2.1,0.9,2.1,2.1s-0.9,2.1-2.1,2.1c-2.3,0-4.2,1.9-4.2,4.2v12.5  c0,2.3,1.9,4.2,4.2,4.2c1.2,0,2.1,0.9,2.1,2.1s-0.9,2.1-2.1,2.1c-2.3,0-4.2,1.9-4.2,4.2v12.5c0,2.3,1.9,4.2,4.2,4.2h12.5  c2.3,0,4.2-1.9,4.2-4.2c0-1.2,0.9-2.1,2.1-2.1s2.1,0.9,2.1,2.1c0,2.3,1.9,4.2,4.2,4.2h12.5c2.3,0,4.2-1.9,4.2-4.2  c0-1.2,0.9-2.1,2.1-2.1s2.1,0.9,2.1,2.1c0,2.3,1.9,4.2,4.2,4.2h12.5c2.3,0,4.2-1.9,4.2-4.2c0-1.2,0.9-2.1,2.1-2.1  c1.2,0,2.1,0.9,2.1,2.1c0,2.3,1.9,4.2,4.2,4.2h12.5c2.3,0,4.2-1.9,4.2-4.2v-12.5c0-2.3-1.9-4.2-4.2-4.2c-1.2,0-2.1-0.9-2.1-2.1  s0.9-2.1,2.1-2.1c2.3,0,4.2-1.9,4.2-4.2v-12.5c0-2.3-1.9-4.2-4.2-4.2c-1.2,0-2.1-0.9-2.1-2.1s0.9-2.1,2.1-2.1c2.3,0,4.2-1.9,4.2-4.2  v-12.5c0-2.3-1.9-4.2-4.2-4.2c-1.2,0-2.1-0.9-2.1-2.1S188.1,292.8,189.3,292.8z M185.1,285.4c-5.3,2.3-7.7,8.5-5.4,13.7  c1.1,2.4,3,4.3,5.4,5.4v5.9c-5.3,2.3-7.7,8.5-5.4,13.7c1.1,2.4,3,4.3,5.4,5.4v5.9c-5.3,2.3-7.7,8.5-5.4,13.7c1.1,2.4,3,4.3,5.4,5.4  v5h-5c-2.3-5.3-8.5-7.7-13.7-5.4c-2.4,1.1-4.3,3-5.4,5.4h-5.9c-2.3-5.3-8.5-7.7-13.7-5.4c-2.4,1.1-4.3,3-5.4,5.4h-5.9  c-2.3-5.3-8.5-7.7-13.7-5.4c-2.4,1.1-4.3,3-5.4,5.4h-5v-5c5.3-2.3,7.7-8.5,5.4-13.7c-1.1-2.4-3-4.3-5.4-5.4v-5.9  c5.3-2.3,7.7-8.5,5.4-13.7c-1.1-2.4-3-4.3-5.4-5.4v-5.9c5.3-2.3,7.7-8.5,5.4-13.7c-1.1-2.4-3-4.3-5.4-5.4v-5h5  c2.3,5.3,8.5,7.7,13.7,5.4c2.4-1.1,4.3-3,5.4-5.4h5.9c2.3,5.3,8.5,7.7,13.7,5.4c2.4-1.1,4.3-3,5.4-5.4h5.9c2.3,5.3,8.5,7.7,13.7,5.4  c2.4-1.1,4.3-3,5.4-5.4h5V285.4z M145.5,290.8c-16.1,0-29.2,13.1-29.2,29.2c0,16.1,13.1,29.2,29.2,29.2c5.1,0,10.2-1.3,14.6-3.9  c2-1.1,2.8-3.6,1.8-5.6c-1.1-2-3.6-2.8-5.6-1.8c-0.1,0.1-0.2,0.1-0.3,0.2c-10,5.8-22.7,2.3-28.5-7.6c-5.8-10-2.3-22.7,7.6-28.5  s22.7-2.3,28.5,7.6c1.8,3.2,2.8,6.8,2.8,10.4v2.1c0,1.9-1.5,3.5-3.5,3.5c-1.9,0-3.5-1.5-3.5-3.5v-11.8c-0.1-2.3-2-4.1-4.3-4.1  c-1.2,0-2.4,0.6-3.1,1.6c-2-1.1-4.2-1.7-6.5-1.7c-7.7,0-13.9,6.2-13.9,13.9c0,7.7,6.2,13.9,13.9,13.9c3.3,0,6.5-1.2,9-3.4  c4.7,4.6,12.2,4.5,16.7-0.1c2.1-2.2,3.4-5.1,3.4-8.2v-2.1C174.7,303.8,161.6,290.8,145.5,290.8z M145.5,325.5  c-3.1,0-5.5-2.5-5.5-5.5c0-3.1,2.5-5.5,5.5-5.5c3.1,0,5.5,2.5,5.5,5.5l0,0C151.1,323,148.7,325.5,145.5,325.5  C145.6,325.5,145.6,325.5,145.5,325.5z"
   id="path2" />
<g
   class="st6"
   id="g3">
	<path
   class="st7"
   d="M406.4,258.1V250h-10.7c-0.3,3.4-3.2,6.1-6.7,6.1c-3.5,0-6.4-2.7-6.7-6.1h-8.2c-0.3,3.4-3.2,6.1-6.7,6.1   c-3.5,0-6.4-2.7-6.7-6.1h-8.5c-0.3,3.4-3.2,6.1-6.7,6.1c-3.5,0-6.4-2.7-6.7-6.1h-8.2c-0.3,3.4-3.2,6.1-6.7,6.1   c-3.5,0-6.4-2.7-6.7-6.1h-8.2v8.1c3.7,0,6.7,3,6.7,6.7c0,3.7-3,6.7-6.7,6.7v8.1c3.7,0,6.7,3,6.7,6.7c0,3.7-3,6.7-6.7,6.7v8.4   c3.7,0,6.7,3,6.7,6.7c0,3.7-3,6.7-6.7,6.7v8.1c3.7,0,6.7,3,6.7,6.7c0,3.7-3,6.7-6.7,6.7v8.5c3.7,0,6.7,3,6.7,6.7s-3,6.7-6.7,6.7   v10.5h8.2c0-3.7,3-6.7,6.7-6.7c3.7,0,6.7,3,6.7,6.7h8.1c0-3.7,3-6.7,6.7-6.7c3.7,0,6.7,3,6.7,6.7h8.4c0-3.7,3-6.7,6.7-6.7   c3.7,0,6.7,3,6.7,6.7h8.1c0-3.7,3-6.7,6.7-6.7c3.7,0,6.7,3,6.7,6.7h10.6v-10.5c-3.7,0-6.7-3-6.7-6.7s3-6.7,6.7-6.7v-8.5   c-3.7,0-6.7-3-6.7-6.7c0-3.7,3-6.7,6.7-6.7v-8.1c-3.7,0-6.7-3-6.7-6.7c0-3.7,3-6.7,6.7-6.7v-8.4c-3.7,0-6.7-3-6.7-6.7   c0-3.7,3-6.7,6.7-6.7v-8.1c-3.7,0-6.7-3-6.7-6.7C399.7,261.1,402.7,258.1,406.4,258.1z M397.7,360.3h-15.5   c2.6-4.3,4.2-9.4,4.2-14.9c0-11-6.2-20.6-15.3-25.4c4.3-3.7,7.1-9.3,7.1-15.4c0-11.3-9.1-20.4-20.4-20.4   c-11.3,0-20.4,9.1-20.4,20.4c0,6.2,2.7,11.7,7.1,15.4c-9.1,4.8-15.3,14.4-15.3,25.4c0,5.4,1.5,10.5,4.2,14.9h-15.5V258.7h79.9   L397.7,360.3L397.7,360.3z"
   id="path3" />
</g>
<path
   class="st5"
   d="M250.2,220.8c-5.3,0-11.5,2.4-14.9,4.3c-2.4,1.3-10.9,6.4-18.2,7.8c-9.4,1.8-14.8,10.9-9.3,15.5  c9.2,7.6,9.5,17.4,2.7,24.6c-7.5,8,0.2,19.4,10.9,18.1c10.7-1.3,15.2,0.1,20.6,5.6c7.1,7.1,22.4,4.2,26.2-5.6  c1.8-4.6,4.1-9.7,10-11.8c6.9-2.5,8.9-10.2,4.5-15.6c-3.3-4-3.7-8.1,0.8-16.4c3.7-6.8,0.8-14.4-9.5-13.8c-7.7,0.4-11-4.7-16.6-10.2  C255.5,221.5,252.9,220.9,250.2,220.8L250.2,220.8z M246.7,233.9c15,0,27.2,12.3,27.2,27.4c0,15.1-12.2,27.4-27.2,27.4  c-15,0-27.2-12.3-27.2-27.4C219.5,246.2,231.7,233.9,246.7,233.9L246.7,233.9z M246.7,237.1c-13.3,0-24,10.8-24,24.2  c0,13.4,10.7,24.2,24,24.2c13.3,0,24-10.8,24-24.2C270.7,247.9,260,237.1,246.7,237.1L246.7,237.1z M245.1,240.4h3.2v2.2l5.5,1.7  l-5.5,1.7h-0.1v16.7h-3.1V246l-5.7-1.7l5.7-1.7V240.4z M236.3,247.3c1.7,0,3.5,0.4,5.5,1.2v3.5c-2.5-1.3-4.6-1.7-6.2-1.5  c-1.9,0.2-3.2,1.1-4,2.4c-1.6,2.6-1.2,6.8,2.4,9.6h-4.4c-2.5-3.6-2.7-8.1-0.7-11.3c1.3-2.1,3.5-3.6,6.4-3.9  C235.5,247.4,235.9,247.3,236.3,247.3L236.3,247.3z M257.1,247.3c0.4,0,0.7,0,1.1,0.1c2.8,0.3,5.1,1.8,6.4,3.9  c2,3.3,1.9,7.8-0.7,11.3h-4.4c3.6-2.8,4-7.1,2.4-9.6c-0.8-1.3-2.1-2.2-4-2.4c-1.7-0.2-3.8,0.2-6.5,1.6v-3.6  C253.4,247.8,255.4,247.3,257.1,247.3L257.1,247.3z M244.9,250.2C245,250.2,245,250.3,244.9,250.2L244.9,250.2L244.9,250.2  L244.9,250.2z M231,265.9h31.3v3.2h-5.8v3.1h5.8v3.2H231v-3.2h6.2V269H231V265.9L231,265.9z M240.4,269v3.1h4.7V269H240.4z   M248.3,269v3.1h5V269H248.3L248.3,269z M246.7,277.6c1.3,0,2.4,1.1,2.4,2.4s-1.1,2.4-2.4,2.4c-1.3,0-2.4-1.1-2.4-2.4  S245.4,277.6,246.7,277.6L246.7,277.6z M279.8,286.8c-1.2,0-2.5,0.4-3.7,1.3c-5.8,4.4-1.7,12.9,5.4,6.9  C287,290.5,283.8,286.7,279.8,286.8z"
   id="path4" />
<ellipse
   class="st5"
   cx="246.6"
   cy="260.7"
   rx="21"
   ry="21.1"
   id="ellipse4" />
</svg>
