<?xml version="1.0" encoding="UTF-8" standalone="no"?>
<!-- Created with Inkscape (http://www.inkscape.org/) -->

<svg
   width="500"
   height="500"
   viewBox="0 0 132.29166 132.29167"
   version="1.1"
   id="svg8"
   inkscape:version="1.3.2 (091e20e, 2023-11-25, custom)"
   sodipodi:docname="link.svg"
   xmlns:inkscape="http://www.inkscape.org/namespaces/inkscape"
   xmlns:sodipodi="http://sodipodi.sourceforge.net/DTD/sodipodi-0.dtd"
   xmlns="http://www.w3.org/2000/svg"
   xmlns:svg="http://www.w3.org/2000/svg"
   xmlns:rdf="http://www.w3.org/1999/02/22-rdf-syntax-ns#"
   xmlns:cc="http://creativecommons.org/ns#"
   xmlns:dc="http://purl.org/dc/elements/1.1/">
  <defs
     id="defs2" />
  <sodipodi:namedview
     id="base"
     pagecolor="#ffffff"
     bordercolor="#a52828"
     borderopacity="1"
     inkscape:pageopacity="0.0"
     inkscape:pageshadow="2"
     inkscape:zoom="0.7"
     inkscape:cx="195"
     inkscape:cy="252.14286"
     inkscape:document-units="px"
     inkscape:current-layer="layer1"
     showgrid="false"
     units="px"
     borderlayer="false"
     inkscape:pagecheckerboard="false"
     inkscape:window-width="1920"
     inkscape:window-height="991"
     inkscape:window-x="-9"
     inkscape:window-y="-9"
     inkscape:window-maximized="1"
     showguides="true"
     inkscape:guide-bbox="true"
     inkscape:measure-start="249.821,63.0357"
     inkscape:measure-end="249.821,0"
     inkscape:showpageshadow="0"
     inkscape:deskcolor="#d1d1d1">
    <sodipodi:guide
       position="9.5882942,66.182616"
       orientation="0,1"
       id="guide859"
       inkscape:locked="false" />
    <sodipodi:guide
       position="66.145833,14.717448"
       orientation="1,0"
       id="guide863"
       inkscape:locked="false" />
    <sodipodi:guide
       position="91.281245,132.29167"
       orientation="0,1"
       id="guide865"
       inkscape:locked="false" />
    <sodipodi:guide
       position="4.943e-007,86.758659"
       orientation="1,0"
       id="guide867"
       inkscape:locked="false" />
  </sodipodi:namedview>
  <metadata
     id="metadata5">
    <rdf:RDF>
      <cc:Work
         rdf:about="">
        <dc:format>image/svg+xml</dc:format>
        <dc:type
           rdf:resource="http://purl.org/dc/dcmitype/StillImage" />
        <dc:title />
      </cc:Work>
    </rdf:RDF>
  </metadata>
  <g
     inkscape:label="Capa 1"
     inkscape:groupmode="layer"
     id="layer1"
     transform="translate(0,-164.70832)">
    <path
       style="fill:#ffffff;fill-opacity:1;fill-rule:nonzero;stroke:none;stroke-width:0.264583;stroke-linecap:butt;stroke-linejoin:miter;stroke-miterlimit:1.41421;stroke-dasharray:none;stroke-opacity:1;paint-order:markers stroke fill"
       d="M 0,164.70832 V 296.99998 H 132.29167 V 164.70832 Z"
       id="rect815-6"
       inkscape:connector-curvature="0" />
    <path
       style="display:none;opacity:1;fill:#ffffff;fill-opacity:1;fill-rule:nonzero;stroke:none;stroke-width:0.264583;stroke-linecap:butt;stroke-linejoin:miter;stroke-miterlimit:1.41421;stroke-dasharray:none;stroke-opacity:1;paint-order:markers stroke fill"
       d="M 0,164.70832 V 296.99998 H 132.29167 V 164.70832 Z"
       id="rect815"
       inkscape:connector-curvature="0" />
    <circle
       class="st1"
       cx="66.145836"
       cy="230.85416"
       id="ellipse1"
       style="fill:#febd17;stroke-width:0.201204"
       r="50.270832" />
    <path
       class="st3"
       d="m 66.165963,267.83338 c -17.45487,0 -26.172239,0 -31.58788,-5.40914 -5.435772,-5.42925 -5.435772,-14.13616 -5.435772,-31.57009 0,-17.43392 0,-26.14083 5.41564,-31.54997 5.415641,-5.40914 14.153142,-5.42925 31.587879,-5.42925 17.454869,0 26.172232,0 31.587879,5.40914 5.415641,5.40914 5.415641,14.13616 5.415641,31.54997 0,17.43393 0,26.14084 -5.415641,31.54998 -5.395513,5.44936 -14.112876,5.44936 -31.567746,5.44936 z"
       id="path2"
       style="clip-rule:evenodd;fill:#353849;fill-rule:evenodd;stroke-width:0.201204"
       sodipodi:nodetypes="ssssssscs" />
    <g
       id="g846"
       transform="matrix(0.22996109,0,0,0.23080006,-17.100086,120.76252)"
       style="fill:#4ceedf;fill-opacity:1;stroke:#ffffff;stroke-width:0.413971;stroke-dasharray:none;stroke-opacity:1"
       inkscape:export-xdpi="96"
       inkscape:export-ydpi="96">
      <path
         inkscape:export-ydpi="96"
         inkscape:export-xdpi="96"
         inkscape:connector-curvature="0"
         id="rect822-8"
         d="m 346.60708,447.14918 c -11.53639,-0.0647 -23.09235,4.32843 -31.86743,13.17966 l -51.89668,52.34582 c -17.42289,17.57407 -17.42463,46.21021 -0.002,63.78429 17.42288,17.57404 45.81493,17.57405 63.23781,0 l 43.93319,-44.31647 a 7.7290674,7.7111017 0 0 0 3.01382,-6.104 7.7290674,7.7111017 0 0 0 -7.72994,-7.71046 7.7290674,7.7111017 0 0 0 -5.96175,2.8102 l -44.04998,44.43325 c -11.62971,11.73062 -30.01878,11.72886 -41.6485,-0.002 -11.62971,-11.73063 -11.62971,-30.27719 0,-42.00782 l 51.89668,-52.34584 c 10.68665,-10.77935 27.0795,-11.65416 38.69158,-2.62305 0,0 0.002,0.002 0.002,0.002 1.46118,1.58852 3.52223,2.49415 5.68328,2.4973 4.26932,4.7e-4 7.7304,-3.45257 7.72993,-7.71197 -0.004,-2.12711 -0.88782,-4.15825 -2.44339,-5.61292 -0.006,-0.008 -0.0224,-0.0359 -0.0224,-0.0359 -0.0432,-0.0367 -0.0885,-0.0698 -0.13175,-0.1063 -0.15863,-0.13993 -0.32296,-0.27328 -0.49258,-0.39975 -8.11096,-6.65546 -18.01628,-10.02037 -27.94182,-10.07601 z"
         style="color:#000000;font-style:normal;font-variant:normal;font-weight:normal;font-stretch:normal;font-size:medium;line-height:normal;font-family:sans-serif;font-variant-ligatures:normal;font-variant-position:normal;font-variant-caps:normal;font-variant-numeric:normal;font-variant-alternates:normal;font-feature-settings:normal;text-indent:0;text-align:start;text-decoration:none;text-decoration-line:none;text-decoration-style:solid;text-decoration-color:#000000;letter-spacing:normal;word-spacing:normal;text-transform:none;writing-mode:lr-tb;direction:ltr;text-orientation:mixed;dominant-baseline:auto;baseline-shift:baseline;text-anchor:start;white-space:normal;shape-padding:0;clip-rule:nonzero;display:inline;overflow:visible;visibility:visible;opacity:1;isolation:auto;mix-blend-mode:normal;color-interpolation:sRGB;color-interpolation-filters:linearRGB;solid-color:#000000;solid-opacity:1;fill:#4ceedf;fill-opacity:1;fill-rule:evenodd;stroke:#4ceedf;stroke-width:8.01217;stroke-linecap:butt;stroke-linejoin:miter;stroke-miterlimit:4;stroke-dasharray:none;stroke-dashoffset:0;stroke-opacity:1;paint-order:stroke fill markers;color-rendering:auto;image-rendering:auto;shape-rendering:auto;text-rendering:auto;enable-background:accumulate" />
      <path
         inkscape:export-ydpi="96"
         inkscape:export-xdpi="96"
         inkscape:connector-curvature="0"
         style="color:#000000;font-style:normal;font-variant:normal;font-weight:normal;font-stretch:normal;font-size:medium;line-height:normal;font-family:sans-serif;font-variant-ligatures:normal;font-variant-position:normal;font-variant-caps:normal;font-variant-numeric:normal;font-variant-alternates:normal;font-feature-settings:normal;text-indent:0;text-align:start;text-decoration:none;text-decoration-line:none;text-decoration-style:solid;text-decoration-color:#000000;letter-spacing:normal;word-spacing:normal;text-transform:none;writing-mode:lr-tb;direction:ltr;text-orientation:mixed;dominant-baseline:auto;baseline-shift:baseline;text-anchor:start;white-space:normal;shape-padding:0;clip-rule:nonzero;display:inline;overflow:visible;visibility:visible;opacity:1;isolation:auto;mix-blend-mode:normal;color-interpolation:sRGB;color-interpolation-filters:linearRGB;solid-color:#000000;solid-opacity:1;fill:#ffffff;fill-opacity:1;fill-rule:evenodd;stroke:#ffffff;stroke-width:8.01217;stroke-linecap:butt;stroke-linejoin:miter;stroke-miterlimit:4;stroke-dasharray:none;stroke-dashoffset:0;stroke-opacity:1;paint-order:stroke fill markers;color-rendering:auto;image-rendering:auto;shape-rendering:auto;text-rendering:auto;enable-background:accumulate"
         d="m 377.39291,506.85082 c 11.5364,0.0647 23.09235,-4.32843 31.86744,-13.17966 l 51.89667,-52.34583 c 17.4229,-17.57406 17.42464,-46.21021 0.002,-63.78427 -17.42288,-17.57405 -45.81493,-17.57406 -63.23781,0 l -43.93319,44.31647 a 7.7290674,7.7111017 0 0 0 -3.01382,6.10399 7.7290674,7.7111017 0 0 0 7.72994,7.71046 7.7290674,7.7111017 0 0 0 5.96176,-2.8102 l 44.04997,-44.43325 c 11.62972,-11.73062 30.01878,-11.72886 41.6485,0.002 11.62971,11.73064 11.62971,30.27721 0,42.00783 l -51.89668,52.34583 c -10.68664,10.77936 -27.07949,11.65417 -38.69158,2.62305 0,0 -0.002,-0.002 -0.002,-0.002 -1.46118,-1.58852 -3.52223,-2.49414 -5.68328,-2.49729 -4.26931,-4.7e-4 -7.7304,3.45256 -7.72993,7.71196 0.004,2.12711 0.88782,4.15825 2.44339,5.61292 0.006,0.008 0.0224,0.0359 0.0224,0.0359 0.0432,0.0367 0.0885,0.0698 0.13176,0.1063 0.15863,0.13993 0.32296,0.27328 0.49258,0.39975 8.11096,6.65546 18.01628,10.02037 27.94183,10.07601 z"
         id="path889" />
    </g>
  </g>
</svg>
