<?xml version="1.0" encoding="UTF-8" standalone="no"?>
<!-- Generator: Adobe Illustrator 27.1.0, SVG Export Plug-In . SVG Version: 6.00 Build 0)  -->

<svg
   version="1.1"
   id="svg8"
   x="0px"
   y="0px"
   viewBox="0 0 500 500"
   style="enable-background:new 0 0 500 500;"
   xml:space="preserve"
   sodipodi:docname="multimedia-content.svg"
   inkscape:version="1.3.2 (091e20e, 2023-11-25, custom)"
   xmlns:inkscape="http://www.inkscape.org/namespaces/inkscape"
   xmlns:sodipodi="http://sodipodi.sourceforge.net/DTD/sodipodi-0.dtd"
   xmlns="http://www.w3.org/2000/svg"
   xmlns:svg="http://www.w3.org/2000/svg"><defs
   id="defs3" />
<style
   type="text/css"
   id="style1">
	.st0{display:none;fill:#FFFFFF;}
	.st1{display:none;fill:#FEBD17;}
	.st2{display:none;fill:#DADBDD;}
	.st3{display:none;fill-rule:evenodd;clip-rule:evenodd;fill:#222222;}
	.st4{fill:#FEBD17;}
	.st5{fill-rule:evenodd;clip-rule:evenodd;fill:#353849;}
	.st6{fill-rule:evenodd;clip-rule:evenodd;fill:#FFFFFF;}
	.st7{fill:#FFFFFF;}
	.st8{fill-rule:evenodd;clip-rule:evenodd;fill:#16E8D5;stroke:#353849;stroke-width:13;stroke-miterlimit:10;}
	.st9{display:none;}
	.st10{display:inline;fill-rule:evenodd;clip-rule:evenodd;fill:#FFFFFF;}
	.st11{display:inline;fill:#353849;}
	.st12{display:inline;fill:#F75B38;}
	.st13{display:none;fill-rule:evenodd;clip-rule:evenodd;fill:#FFFFFF;}
</style>
<sodipodi:namedview
   bordercolor="#a52828"
   borderlayer="false"
   borderopacity="1"
   id="base"
   inkscape:current-layer="layer1"
   inkscape:cx="139.28571"
   inkscape:cy="173.57143"
   inkscape:deskcolor="#d1d1d1"
   inkscape:document-units="px"
   inkscape:guide-bbox="true"
   inkscape:measure-end="249.821,0"
   inkscape:measure-start="249.821,63.0357"
   inkscape:pagecheckerboard="false"
   inkscape:pageopacity="0.0"
   inkscape:pageshadow="2"
   inkscape:showpageshadow="0"
   inkscape:window-height="991"
   inkscape:window-maximized="1"
   inkscape:window-width="1920"
   inkscape:window-x="-9"
   inkscape:window-y="-9"
   inkscape:zoom="0.7"
   pagecolor="#ffffff"
   showgrid="false"
   showguides="true"
   units="px">
	<sodipodi:guide
   id="guide859"
   inkscape:locked="false"
   orientation="0,1"
   position="9.5882942,66.182616" />
	<sodipodi:guide
   id="guide863"
   inkscape:locked="false"
   orientation="1,0"
   position="66.145833,14.717448" />
	<sodipodi:guide
   id="guide865"
   inkscape:locked="false"
   orientation="0,1"
   position="91.281245,132.29167" />
	<sodipodi:guide
   id="guide867"
   inkscape:locked="false"
   orientation="1,0"
   position="4.943e-007,86.758659" />
</sodipodi:namedview>
<g
   id="layer1"
   transform="translate(0,-164.70832)"
   inkscape:groupmode="layer"
   inkscape:label="Capa 1">
	<path
   style="fill:#ffffff;fill-opacity:1;fill-rule:nonzero;stroke:none;stroke-width:0.999999;stroke-linecap:butt;stroke-linejoin:miter;stroke-miterlimit:1.41421;stroke-dasharray:none;stroke-opacity:1;paint-order:markers stroke fill"
   d="M 0,164.70832 V 664.7083 H 500.00002 V 164.70832 Z"
   id="rect815-6"
   inkscape:connector-curvature="0" /><path
   id="rect815"
   inkscape:connector-curvature="0"
   class="st0"
   d="M0,164.7v500h500v-500L0,164.7L0,164.7z" />
	<path
   id="rect815_00000078737476516323616250000009787181747039216296_"
   inkscape:connector-curvature="0"
   class="st1"
   d="   M0.5,263.9v300.7c0,55,44.6,99.6,99.6,99.6h300.7c55,0,99.6-44.6,99.6-99.6V263.9c0-55-44.6-99.6-99.6-99.6H100.1   C45.1,164.3,0.5,208.9,0.5,263.9z" />
	<ellipse
   class="st2"
   cx="72.5"
   cy="414.3"
   rx="46"
   ry="62"
   id="ellipse1" />
	<ellipse
   class="st2"
   cx="433.5"
   cy="414.3"
   rx="46"
   ry="62"
   id="ellipse2" />
	<path
   id="rect841-5"
   class="st3"
   d="M114.1,224.7h271.7c29.9,0,54.1,24.2,54.1,54.1v271.7c0,29.9-24.2,54.1-54.1,54.1H114.1   c-29.9,0-54.1-24.2-54.1-54.1V278.8C60,248.9,84.2,224.7,114.1,224.7z" />
	<circle
   class="st4"
   cx="250.00002"
   cy="414.70831"
   id="ellipse3"
   style="stroke-width:0.760456"
   r="190" />
	
	<path
   class="st5"
   d="m 250.0761,554.39633 c -65.97117,0 -98.91871,0 -119.38727,-20.444 -20.54465,-20.52 -20.54465,-53.428 -20.54465,-119.32 0,-65.892 0,-98.8 20.46856,-119.244 20.46856,-20.444 53.49219,-20.444 119.38727,-20.444 65.97116,0 98.9187,0 119.38726,20.444 20.46856,20.444 20.46856,53.428 20.46856,119.244 0,65.892 0,98.8 -20.46856,119.244 -20.39247,20.52 -53.34001,20.52 -119.31117,20.52 z"
   id="path3"
   style="stroke-width:0.760456"
   sodipodi:nodetypes="ssssssscs" />
	
		<g
   id="g933"
   transform="matrix(0.12666116,0,0,0.12650917,73.452789,300.76338)"
   inkscape:export-xdpi="96"
   inkscape:export-ydpi="96">
		<g
   id="g1064"
   transform="translate(-203.9674,-452.65927)">
			<path
   id="rect1028"
   inkscape:connector-curvature="0"
   class="st6"
   d="m 901.5,830.4 h 1392.6 c 64.8,0 117.1,50.3 117.1,112.7 v 819.4 c 0,62.5 -52.2,112.7 -117.1,112.7 H 901.5 c -64.8,0 -117.1,-50.3 -117.1,-112.7 V 943.1 c 0.1,-62.5 52.2,-112.7 117.1,-112.7 z" />
			<path
   id="rect1064-0-7-5"
   inkscape:connector-curvature="0"
   class="st7"
   d="m 1149.9,831 h 880.2 v 1042.4 h -880.2 z" />
			<path
   id="path4508-4-7-9-6-2"
   inkscape:connector-curvature="0"
   sodipodi:nodetypes="ccsccccccc"
   class="st8"
   d="m 1441.6,1352.9 v -196 c 0,-43.1 18.9,-55.7 57.8,-31.5 l 149.5,93.4 152.8,97.8 c 39.8,25.1 43.3,44.6 -2.7,73.4 l -149,93.4 -153,97.6 c -40.8,22.7 -55.4,-3.5 -55.4,-31.8 z" />
			<path
   id="rect1032"
   inkscape:connector-curvature="0"
   class="st5"
   d="m 935.4,930.5 h 114.8 c 17.9,0 32.3,13.9 32.3,31.1 v 92.4 c 0,17.3 -14.5,31.1 -32.3,31.1 H 935.4 c -17.9,0 -32.3,-13.9 -32.3,-31.1 v -92.4 c 0,-17.4 14.4,-31.1 32.3,-31.1 z" />
			<path
   id="rect1034"
   inkscape:connector-curvature="0"
   class="st5"
   d="m 935.4,1275.5 h 114.8 c 17.9,0 32.3,13.9 32.3,31.1 v 92.4 c 0,17.3 -14.5,31.1 -32.3,31.1 H 935.4 c -17.9,0 -32.3,-13.9 -32.3,-31.1 v -92.4 c 0,-17.2 14.4,-31.1 32.3,-31.1 z" />
			<path
   id="rect1038"
   inkscape:connector-curvature="0"
   class="st5"
   d="m 2140.7,930.5 h 114.8 c 17.9,0 32.3,13.9 32.3,31.1 v 92.4 c 0,17.3 -14.5,31.1 -32.3,31.1 h -114.8 c -17.9,0 -32.3,-13.9 -32.3,-31.1 v -92.4 c 0,-17.4 14.4,-31.1 32.3,-31.1 z" />
			<path
   id="rect1040"
   inkscape:connector-curvature="0"
   class="st5"
   d="m 2140.7,1276.2 h 114.8 c 17.9,0 32.3,13.9 32.3,31.1 v 92.4 c 0,17.3 -14.5,31.1 -32.3,31.1 h -114.8 c -17.9,0 -32.3,-13.9 -32.3,-31.1 v -92.5 c 0,-17.2 14.4,-31 32.3,-31 z" />
			<path
   id="rect1046"
   inkscape:connector-curvature="0"
   class="st5"
   d="m 2140.7,1620.6 h 114.8 c 17.9,0 32.3,13.9 32.3,31.1 v 92.4 c 0,17.3 -14.5,31.1 -32.3,31.1 h -114.8 c -17.9,0 -32.3,-13.9 -32.3,-31.1 v -92.4 c 0,-17.2 14.4,-31.1 32.3,-31.1 z" />
			<path
   id="rect1034_00000000918808828561171660000015704637741599440807_"
   inkscape:connector-curvature="0"
   class="st5"
   d="m 935.4,1620.6 h 114.8 c 17.9,0 32.3,13.9 32.3,31.1 v 92.4 c 0,17.3 -14.5,31.1 -32.3,31.1 H 935.4 c -17.9,0 -32.3,-13.9 -32.3,-31.1 v -92.4 c 0,-17.2 14.4,-31.1 32.3,-31.1 z" />
		</g>
		<g
   id="g1070"
   transform="translate(-203.9674,-444.65927)"
   class="st9">
			<path
   id="rect1016"
   inkscape:connector-curvature="0"
   class="st10"
   d="m 444.3,975.7 h 919.6 c 49.6,0 89.6,41.2 89.6,92.4 v 955.5 c 0,51.2 -39.9,92.4 -89.6,92.4 H 444.3 c -49.6,0 -89.6,-41.2 -89.6,-92.4 v -955.5 c 0,-51.2 40,-92.4 89.6,-92.4 z" />
			<path
   id="rect833-94-2"
   inkscape:connector-curvature="0"
   class="st11"
   d="m 494.1,1048 h 812.8 c 40.1,0 72.6,33.4 72.6,74.8 v 712.5 c 0,41.5 -32.4,74.8 -72.6,74.8 H 494.1 c -40.1,0 -72.6,-33.4 -72.6,-74.8 v -712.5 c 0,-41.4 32.3,-74.8 72.6,-74.8 z" />
			
				<path
   id="rect828-2-1"
   inkscape:connector-curvature="0"
   inkscape:export-xdpi="96"
   inkscape:export-ydpi="96"
   sodipodi:nodetypes="cccsccsccccc"
   class="st12"
   d="m 761.9,1344.1 183.9,328.5 156.9,-125.7 c 27.1,-22 48.2,-22.5 73.9,2.3 l 202.8,196.2 v 92.6 c 0,31.3 -28.4,73.1 -64.4,73.1 H 481 c -17,-2.2 -40.3,-21.4 -46.4,-32.5 l -0.5,0.2 270.9,-535.3 c 14.8,-26 44.9,-24.9 56.9,0.6 z" />
			<path
   id="path831-6-2"
   inkscape:connector-curvature="0"
   class="st12"
   d="m 1323.8,1212.2 c 0,57.3 -45.8,103.8 -102.3,103.8 -56.5,0 -102.3,-46.5 -102.3,-103.8 0,-57.3 45.8,-103.8 102.3,-103.8 56.5,0.2 102.3,46.5 102.3,103.8 z" />
		</g>
		<path
   id="rect1016_00000038389342036148826200000016170915381620544905_"
   inkscape:connector-curvature="0"
   class="st13"
   d="M 1681.3,1037.4 H 2601 c 49.6,0 89.6,41.2 89.6,92.4 v 955.5 c 0,51.2 -39.9,92.4 -89.6,92.4 h -919.7 c -49.6,0 -89.6,-41.2 -89.6,-92.4 v -955.4 c 0,-51.2 39.9,-92.5 89.6,-92.5 z" />
		
			<path
   id="path4508-4-8-05-7"
   inkscape:connector-curvature="0"
   inkscape:export-xdpi="96"
   inkscape:export-ydpi="96"
   sodipodi:nodetypes="cscccssccccccccccccccscsccsccscccc"
   class="st13"
   d="m 1422.5,2072.7 c -62.6,-16.8 -116.6,-55.6 -138.4,-99.3 -13.8,-27.8 -17,-86.4 -6.3,-119 14,-43.3 61.2,-84.9 121.4,-107 72.6,-26.9 185.8,-21.8 248.8,11 8.6,4.6 16.9,8.2 18.1,8.2 1.2,0 2.8,-146.9 3.4,-326.5 l 0.9,-273.2 c 0,-33.8 19.9,-57.7 54.6,-65.5 l 240,-54.7 326.9,-61 c 31.3,-6 57.1,14.6 57.1,49.3 l -0.9,358.8 -1.2,406.4 c -1.6,11 -5.7,20.2 -9.8,30 -20.3,45.3 -64.3,81.3 -123.6,100.9 -46.2,15.3 -125.5,19.4 -174.8,9 -71.4,-15.2 -131.2,-56.3 -155.6,-107.2 -10.3,-21.3 -11.7,-29.7 -11.7,-63.9 0,-32.7 1.8,-43 10.5,-61.2 15.4,-32.3 49.8,-65.4 87.1,-83.5 43.2,-21 69.5,-27.6 122.1,-30.5 64,-3.6 104.8,4.9 173.9,36.1 4.3,1.8 5.4,-35.6 5.4,-179.5 0,-54 -0.1,-93.1 -0.6,-120.8 -0.3,-47.5 -13.8,-59.2 -61.5,-48.5 -47.9,10.7 -121.3,27.4 -202.5,45.9 l -193.6,44.2 c -57.4,13 -60.4,23.8 -60.8,69.3 l -1.7,223.8 c -2.3,307 -0.9,289.8 -28.8,331.3 -12.9,19.1 -54.5,50.9 -82.6,63.3 -54,23.5 -155.3,30.1 -215.8,13.8 z" />
	</g>
</g>
</svg>
