<?xml version="1.0" encoding="UTF-8" standalone="no"?>
<!-- Generator: Adobe Illustrator 27.1.0, SVG Export Plug-In . SVG Version: 6.00 Build 0)  -->

<svg
   version="1.1"
   id="svg8"
   x="0px"
   y="0px"
   viewBox="0 0 499.4 500"
   style="enable-background:new 0 0 499.4 500;"
   xml:space="preserve"
   sodipodi:docname="posts.svg"
   inkscape:version="1.3.2 (091e20e, 2023-11-25, custom)"
   xmlns:inkscape="http://www.inkscape.org/namespaces/inkscape"
   xmlns:sodipodi="http://sodipodi.sourceforge.net/DTD/sodipodi-0.dtd"
   xmlns="http://www.w3.org/2000/svg"
   xmlns:svg="http://www.w3.org/2000/svg"><defs
   id="defs3" /><sodipodi:namedview
   id="namedview3"
   pagecolor="#ffffff"
   bordercolor="#000000"
   borderopacity="0.25"
   inkscape:showpageshadow="2"
   inkscape:pageopacity="0.0"
   inkscape:pagecheckerboard="0"
   inkscape:deskcolor="#d1d1d1"
   inkscape:zoom="1.554"
   inkscape:cx="250"
   inkscape:cy="250"
   inkscape:window-width="1920"
   inkscape:window-height="991"
   inkscape:window-x="-9"
   inkscape:window-y="-9"
   inkscape:window-maximized="1"
   inkscape:current-layer="svg8" />
<style
   type="text/css"
   id="style1">
	.st0{fill:#222222;}
	.st1{fill:#FEBD17;}
	.st2{fill-rule:evenodd;clip-rule:evenodd;fill:#353849;}
	.st3{fill:#16E8D5;}
	.st4{fill:#FFFFFF;}
</style>
<path
   style="fill:#ffffff;fill-opacity:1;fill-rule:nonzero;stroke:none;stroke-width:0.999999;stroke-linecap:butt;stroke-linejoin:miter;stroke-miterlimit:1.41421;stroke-dasharray:none;stroke-opacity:1;paint-order:markers stroke fill"
   d="M 0,0 V 499.99998 H 500.00002 V 0 Z"
   id="rect815-6"
   inkscape:connector-curvature="0" /><g
   id="layer1"
   transform="matrix(0.76091311,0,0,0.76,60,60)">
	<path
   id="rect841-5"
   class="st0"
   d="m 113.8,60 h 271.7 c 29.9,0 54.1,24.2 54.1,54.1 v 271.7 c 0,29.9 -24.2,54.1 -54.1,54.1 H 113.8 c -29.9,0 -54.1,-24.2 -54.1,-54.1 V 114.1 C 59.7,84.2 83.9,60 113.8,60 Z" />
	<ellipse
   class="st1"
   cx="249.7"
   cy="250"
   rx="249.7"
   ry="250"
   id="ellipse1" />
</g>

<path
   class="st2"
   d="m 250.30437,389.764 c -65.97117,0 -98.91871,0 -119.38727,-20.444 C 110.37245,348.8 110.37245,315.892 110.37245,250 c 0,-65.892 0,-98.8 20.46856,-119.244 20.46856,-20.444 53.49219,-20.52 119.38727,-20.52 65.97116,0 98.9187,0 119.38726,20.444 20.46857,20.444 20.46857,53.428 20.46857,119.244 0,65.892 0,98.8 -20.46857,119.244 -20.39247,20.596 -53.34001,20.596 -119.31117,20.596 z"
   id="path1"
   style="stroke-width:0.760456"
   sodipodi:nodetypes="ssssssscs" />
<g
   id="g3"
   transform="matrix(0.76091311,0,0,0.76,60,60)">
	<path
   class="st3"
   d="m 167.2,310.7 -41.9,41.9 c -1.1,1.1 -1.7,2.5 -1.8,4 l -0.5,13.7 c -0.1,3.5 2.7,6.4 6.3,6.3 l 13.7,-0.5 c 1.5,-0.1 3,-0.7 4,-1.8 l 41.9,-41.9 c 2.4,-2.4 2.4,-6.4 -0.1,-8.7 -2.2,-2.1 -4.4,-4.2 -6.6,-6.4 -2.2,-2.1 -4.3,-4.3 -6.3,-6.5 -2.3,-2.5 -6.3,-2.5 -8.7,-0.1 z"
   id="path2" />
	<path
   class="st4"
   d="M 343.9,155.8 C 315,127 280.4,115 266.4,129 c -7.2,7.2 -7.5,19.7 -2.2,34.1 0.9,2.4 0.2,5 -1.7,6.7 L 225,202.2 c -1.9,1.6 -4.6,1.9 -6.8,0.8 -26.3,-13.7 -50.4,-16.2 -62.8,-3.8 -19.4,19.4 -2.7,67.6 37.4,107.7 40.1,40.1 88.2,56.8 107.7,37.4 12.4,-12.4 10,-36.6 -3.8,-62.8 -1.2,-2.2 -0.9,-4.9 0.8,-6.8 L 330,237.3 c 1.7,-1.9 4.3,-2.6 6.7,-1.7 14.4,5.2 27,4.9 34.1,-2.2 14,-14.1 1.9,-48.7 -26.9,-77.6 z"
   id="path3" />
</g>
</svg>
