<?xml version="1.0" encoding="UTF-8" standalone="no"?>
<!-- Created with Inkscape (http://www.inkscape.org/) -->

<svg
   width="500"
   height="500"
   viewBox="0 0 132.29166 132.29167"
   version="1.1"
   id="svg8"
   inkscape:version="1.3.2 (091e20e, 2023-11-25, custom)"
   sodipodi:docname="icon-redirect.svg"
   xml:space="preserve"
   inkscape:export-filename="icon-redirect.png"
   inkscape:export-xdpi="96"
   inkscape:export-ydpi="96"
   xmlns:inkscape="http://www.inkscape.org/namespaces/inkscape"
   xmlns:sodipodi="http://sodipodi.sourceforge.net/DTD/sodipodi-0.dtd"
   xmlns="http://www.w3.org/2000/svg"
   xmlns:svg="http://www.w3.org/2000/svg"
   xmlns:rdf="http://www.w3.org/1999/02/22-rdf-syntax-ns#"
   xmlns:cc="http://creativecommons.org/ns#"
   xmlns:dc="http://purl.org/dc/elements/1.1/"><defs
     id="defs2"><inkscape:path-effect
       effect="fillet_chamfer"
       id="path-effect6"
       is_visible="true"
       lpeversion="1"
       nodesatellites_param="F,0,0,1,0,0,0,1 @ F,0,0,1,0,0,0,1 @ F,0,0,1,0,0,0,1 @ F,0,0,1,0,4.0520096,0,1 @ F,0,0,1,0,0,0,1 @ F,0,0,1,0,0,0,1 @ F,0,0,1,0,0,0,1 @ F,0,0,1,0,0,0,1 @ F,0,0,1,0,0,0,1 @ F,0,0,1,0,0,0,1 @ F,0,0,1,0,0,0,1 @ F,0,0,1,0,8.48491,0,1 @ F,0,0,1,0,0,0,1 @ F,0,0,1,0,8.6544993,0,1 @ F,0,0,1,0,0,0,1 @ F,0,0,1,0,0,0,1 @ F,0,0,1,0,0,0,1 @ F,0,0,1,0,0,0,1 @ F,0,0,1,0,0,0,1 @ F,0,0,1,0,0,0,1 @ F,0,0,1,0,0,0,1 @ F,0,0,1,0,5.4810831,0,1 @ F,0,0,1,0,0,0,1 @ F,0,0,1,0,0,0,1 @ F,0,0,1,0,0,0,1 @ F,0,0,1,0,0,0,1 @ F,0,0,1,0,0,0,1 @ F,0,0,1,0,0,0,1 @ F,0,0,1,0,0,0,1 @ F,0,0,1,0,0,0,1 | F,0,0,1,0,0,0,1 @ F,0,0,1,0,9.1333763,0,1 @ F,0,0,1,0,0,0,1 @ F,0,0,1,0,0,0,1 @ F,0,0,1,0,0,0,1 @ F,0,0,1,0,1.6714448,0,1 @ F,0,0,1,0,1.5025134,0,1 @ F,0,0,1,0,4.6585954,0,1 @ F,0,0,1,0,4.6585954,0,1 @ F,0,0,1,0,0,0,1 @ F,0,0,1,0,0,0,1 @ F,0,0,1,0,0,0,1 @ F,0,0,1,0,9.5401052,0,1 | F,0,0,1,0,0,0,1 @ F,0,0,1,0,7.0643213,0,1 @ F,0,0,1,0,0,0,1 @ F,0,0,1,0,0,0,1 @ F,0,0,1,0,0,0,1 @ F,0,0,1,0,5.0777421,0,1 @ F,0,0,1,0,0,0,1 @ F,0,0,1,0,0,0,1 @ F,0,0,1,0,0,0,1 @ F,0,0,1,0,0,0,1 @ F,0,0,1,0,0,0,1 @ F,0,0,1,0,0,0,1 @ F,0,0,1,0,0,0,1 @ F,0,0,1,0,0,0,1 @ F,0,0,1,0,0,0,1 @ F,0,0,1,0,4.3102411,0,1 @ F,0,0,1,0,0,0,1 @ F,0,0,1,0,0,0,1 @ F,0,0,1,0,1.0429502,0,1"
       radius="0"
       unit="px"
       method="bezier"
       mode="F"
       chamfer_steps="1"
       flexible="false"
       use_knot_distance="true"
       apply_no_radius="true"
       apply_with_radius="true"
       only_selected="true"
       hide_knots="false" /></defs><sodipodi:namedview
     id="base"
     pagecolor="#ffffff"
     bordercolor="#a52828"
     borderopacity="1"
     inkscape:pageopacity="0.0"
     inkscape:pageshadow="2"
     inkscape:zoom="0.98994949"
     inkscape:cx="100.0051"
     inkscape:cy="205.56604"
     inkscape:document-units="px"
     inkscape:current-layer="layer1"
     showgrid="false"
     units="px"
     borderlayer="false"
     inkscape:pagecheckerboard="false"
     inkscape:window-width="1920"
     inkscape:window-height="1001"
     inkscape:window-x="-9"
     inkscape:window-y="-9"
     inkscape:window-maximized="1"
     showguides="true"
     inkscape:guide-bbox="true"
     inkscape:measure-start="249.821,63.0357"
     inkscape:measure-end="249.821,0"
     inkscape:showpageshadow="2"
     inkscape:deskcolor="#d1d1d1"><sodipodi:guide
       position="9.5882942,66.182616"
       orientation="0,1"
       id="guide859"
       inkscape:locked="false" /><sodipodi:guide
       position="66.145833,14.717448"
       orientation="1,0"
       id="guide863"
       inkscape:locked="false" /><sodipodi:guide
       position="91.281245,132.29167"
       orientation="0,1"
       id="guide865"
       inkscape:locked="false" /><sodipodi:guide
       position="4.943e-007,86.758659"
       orientation="1,0"
       id="guide867"
       inkscape:locked="false" /></sodipodi:namedview><metadata
     id="metadata5"><rdf:RDF><cc:Work
         rdf:about=""><dc:format>image/svg+xml</dc:format><dc:type
           rdf:resource="http://purl.org/dc/dcmitype/StillImage" /><dc:title /></cc:Work></rdf:RDF></metadata><g
     inkscape:label="Capa 1"
     inkscape:groupmode="layer"
     id="layer1"
     transform="translate(0,-164.70832)"><path
       style="display:inline;opacity:1;fill:#ffffff;fill-opacity:1;fill-rule:nonzero;stroke:none;stroke-width:0.264583;stroke-linecap:butt;stroke-linejoin:miter;stroke-miterlimit:1.41421;stroke-dasharray:none;stroke-opacity:1;paint-order:markers stroke fill"
       d="M 0,164.70832 V 296.99998 H 132.29167 V 164.70832 Z"
       id="rect815"
       inkscape:connector-curvature="0" /><g
       id="g9"><rect
         style="display:none;opacity:1;fill:#ff0000;fill-opacity:1;fill-rule:evenodd;stroke:none;stroke-width:6.08542;stroke-linecap:round;stroke-linejoin:miter;stroke-miterlimit:4;stroke-dasharray:none;stroke-opacity:1;paint-order:normal"
         id="rect828"
         width="100.54166"
         height="100.54166"
         x="15.875"
         y="180.58333" /><rect
         style="display:none;opacity:1;fill:#000000;fill-opacity:1;fill-rule:evenodd;stroke:#4ceedf;stroke-width:6.61458;stroke-linecap:round;stroke-linejoin:miter;stroke-miterlimit:10;stroke-dasharray:none;stroke-opacity:1;paint-order:markers fill stroke"
         id="rect841-5"
         width="93.927078"
         height="93.927086"
         x="19.182291"
         y="183.89061"
         ry="13.378917" /><circle
         class="st3"
         cx="66.145836"
         cy="230.85416"
         id="ellipse3"
         style="fill:#febd17;stroke-width:0.201204"
         r="50.270832"
         inkscape:label="ellipse3" /><path
         d="m 66.14583,193.87501 c -17.434719,0 -26.172101,0.02 -31.587735,5.42913 -5.415634,5.40914 -5.41569,14.11611 -5.41569,31.55001 0,17.43392 7.7e-5,26.14092 5.435844,31.57017 5.415633,5.40913 14.132884,5.40897 31.587735,5.40897 17.454855,0 26.172085,8e-5 31.567585,-5.44928 5.415631,-5.40913 5.415691,-14.1161 5.415691,-31.55001 0,-17.41379 -6e-5,-26.14088 -5.415691,-31.55001 -5.41564,-5.40914 -14.132884,-5.40898 -31.587739,-5.40898 z"
         style="clip-rule:evenodd;display:inline;fill:#353849;fill-rule:evenodd;stroke-width:0.201204"
         id="path1-1" /><g
         id="g8"
         transform="translate(-0.37796,0.28355635)"><path
           d="m 83.361836,204.16431 c -0.397542,-0.0122 -0.793098,0.089 -1.097091,0.30541 -0.77501,0.55185 -0.843304,0.89544 -0.84646,4.25917 l -5.17e-4,0.70745 c -0.0011,1.26443 -1.026772,2.31476 -2.290816,2.34611 l -0.365352,0.009 c -2.839027,0.0704 -3.617966,0.18515 -5.48442,0.80564 -2.226739,0.74026 -4.065596,1.90111 -5.8229,3.67626 -0.294293,0.29728 -0.590356,0.62085 -0.876433,0.9555 -1.141056,1.33479 -2.107587,2.80362 -1.191596,4.27921 0.186979,0.30121 0.918114,1.88102 1.15151,2.25439 1.634498,2.60678 2.31184,4.26836 3.842955,1.46178 0.124373,-0.22799 0.329174,-0.59496 0.467155,-0.81494 1.348144,-2.14931 1.825439,-2.73418 2.729549,-3.4184 1.651672,-1.24997 2.935575,-1.59938 5.877677,-1.59938 h 0.01705 c 1.073313,0 1.944137,0.87023 1.945101,1.94355 l 0.001,1.06867 c 0.0023,2.67936 0.02726,3.06612 0.224793,3.50107 0.437205,0.96271 1.450639,1.34534 2.409672,0.91003 0.289289,-0.13131 3.149791,-2.4303 6.377905,-5.12579 6.0604,-5.06046 6.254915,-5.25041 6.254915,-6.11487 0,-0.86203 -0.200907,-1.05877 -6.075598,-5.95468 -3.121323,-2.60128 -5.884283,-4.88814 -6.140194,-5.08186 -0.31092,-0.23535 -0.710401,-0.36089 -1.107942,-0.3731 z"
           style="fill:#16e8d5;fill-opacity:1"
           id="path8"
           sodipodi:nodetypes="ccccccsssscsssssccsssssscc" /><path
           d="m 40.264135,211.20257 c -2.155036,-0.0163 -3.902087,1.68327 -3.902087,3.79615 0,2.11287 1.712739,3.82561 3.825606,3.82561 h 1.952336 c 6.329174,0 6.839516,0.0435 8.23929,0.70228 0.962072,0.45276 2.089232,1.32266 2.687691,2.07429 0.270091,0.33923 3.208121,4.96663 6.528801,10.28309 3.320684,5.31646 6.357706,10.1494 6.749458,10.73992 1.47591,2.22471 3.991667,4.33848 6.441984,5.4131 2.229593,0.97782 4.172315,1.32705 7.383012,1.32705 h 0.17415 c 1.00901,0 1.827922,0.81776 1.828829,1.82677 l 0.001,1.18545 c 0.0023,2.67937 0.02726,3.06613 0.224793,3.50108 0.202671,0.44628 0.624753,0.85209 1.084688,1.04232 0.390494,0.16151 1.337688,-0.0308 1.773018,-0.36019 0.23876,-0.18063 2.987865,-2.45681 6.109188,-5.05809 5.874691,-4.89591 6.075598,-5.09264 6.075598,-5.95467 0,-0.86203 -0.200907,-1.05877 -6.075598,-5.95468 -3.121323,-2.60128 -5.884283,-4.88814 -6.140194,-5.08186 -0.621841,-0.47071 -1.597047,-0.50062 -2.205033,-0.0677 -0.775669,0.55233 -0.843304,0.89395 -0.84646,4.27468 l -5.17e-4,0.54053 c -0.0012,1.36487 -0.896809,2.47115 -2.000394,2.47065 -2.930587,-0.001 -4.156421,-0.33683 -5.831169,-1.59576 -0.400396,-0.30099 -0.922429,-0.78386 -1.159619,-1.07332 -0.23719,-0.28946 -3.365886,-5.21566 -6.953064,-10.94714 -3.587182,-5.73149 -6.777918,-10.74516 -7.090523,-11.14144 -1.762007,-2.23364 -4.34811,-4.05812 -7.00319,-4.94078 -2.280525,-0.75814 -2.241223,-0.75499 -9.301758,-0.80822 z"
           style="fill:#ffffff"
           id="path7" /><path
           d="m 56.357283,234.30976 c -0.106815,0.01 -0.205734,0.0297 -0.296106,0.0553 -0.356842,0.10111 -0.768556,0.56212 -0.971517,0.87591 -0.171844,0.26569 -0.389106,0.60765 -0.627352,0.98754 -0.221136,0.35261 -0.575709,0.92676 -0.797367,1.27899 -1.222726,1.94304 -1.714887,2.5306 -2.583822,3.18379 -1.009274,0.75869 -1.699665,1.08897 -2.85874,1.36684 -0.911596,0.21853 -1.418109,0.23629 -6.800618,0.23719 H 39.72419 c -2.274345,3.6e-4 -4.118095,1.71004 -4.118095,3.81838 0,2.1083 1.92592,3.81733 4.301546,3.81733 h 1.51722 c 3.296833,0 6.256808,-0.0538 6.829557,-0.12402 4.464011,-0.54737 8.464042,-3.04296 10.956954,-6.83627 0.187332,-0.28506 0.540199,-0.85348 0.892969,-1.43713 0.599147,-0.99127 0.537218,-2.62713 -0.07545,-3.61218 l -0.0062,-0.009 c -0.612684,-0.98507 -1.538978,-2.71733 -2.52336,-3.31143 -0.431451,-0.26039 -0.821605,-0.32048 -1.142049,-0.29093 z"
           style="fill:#16e8d5;fill-opacity:1"
           id="path6" /></g></g></g></svg>
